<svg version="1.1" id="Layer_1" xmlns="http://www.w3.org/2000/svg" xmlns:xlink="http://www.w3.org/1999/xlink" x="0px" y="0px"
	 width="100%" viewBox="0 0 2000 1814" enable-background="new 0 0 2000 1814" xml:space="preserve">
<path fill="#EFEFEF" opacity="1.000000" stroke="none" 
	d="
M1.000000,1814.000000 
	C1.000000,1210.295776 1.000000,606.591492 1.211824,2.325952 
	C1.694428,1.569094 1.886545,1.314195 2.000000,1.000000 
	C668.289001,1.000000 1334.578003,1.000000 2000.933594,1.000000 
	C2000.933594,605.582092 2000.933594,1210.164185 2000.933594,1815.000000 
	C1334.962402,1815.000000 668.924805,1815.000000 2.328959,1814.786499 
	C1.564623,1814.313599 1.307719,1814.122681 1.000000,1814.000000 
M527.998474,822.999084 
	C527.998474,822.999084 527.994324,822.933838 527.407715,822.969055 
	C526.975708,823.324890 526.543762,823.680725 526.035278,824.021973 
	C526.035278,824.021973 526.029846,824.099609 525.418945,824.169861 
	C524.880005,824.731934 524.341125,825.294006 523.893860,825.844421 
	C523.893860,825.844421 523.844727,825.766174 523.144104,825.813843 
	C496.866760,844.582764 470.431091,863.134949 444.358795,882.184509 
	C420.669250,899.493042 419.015808,929.251770 440.069611,949.508423 
	C441.248260,950.642517 441.841827,952.384644 441.932220,953.905396 
	C407.514008,963.655151 373.092072,973.391846 338.680786,983.166077 
	C332.100098,985.035217 328.337097,991.287598 330.002441,997.337952 
	C331.993256,1004.570801 337.927429,1007.851990 345.553619,1005.690308 
	C371.326874,998.384644 397.077759,991.000061 422.836365,983.642700 
	C437.230530,979.531311 451.606201,975.353455 466.029877,971.348389 
	C469.079285,970.501648 472.572144,969.054749 475.055023,973.667908 
	C472.673157,975.188477 470.398773,976.769043 468.007965,978.147827 
	C418.843872,1006.500549 369.647888,1034.798218 320.546997,1063.259888 
	C318.115753,1064.669189 315.918030,1067.168457 314.612396,1069.680420 
	C312.341003,1074.050415 313.940613,1079.529907 317.653656,1082.836548 
	C321.751129,1086.485474 326.709442,1086.783203 332.448547,1083.483398 
	C357.845490,1068.880493 383.219879,1054.238647 408.591675,1039.592041 
	C437.278320,1023.032104 465.925415,1006.403076 494.695892,989.990173 
	C496.636902,988.882874 499.470367,989.339905 501.556396,990.044189 
	C497.348175,1025.293091 493.139954,1060.542114 488.814240,1095.984253 
	C488.814240,1095.984253 488.976562,1096.141846 488.293152,1096.376221 
	C487.520447,1098.887207 486.683441,1101.380493 485.984436,1103.911743 
	C470.311798,1160.668945 454.649811,1217.428955 438.995087,1274.191040 
	C418.567627,1348.258057 398.147217,1422.327271 377.725494,1496.395996 
	C369.724579,1525.414917 361.706787,1554.429443 353.818390,1583.479004 
	C353.541016,1584.500488 354.570312,1585.876831 355.403778,1587.499268 
	C356.284332,1587.426880 357.164886,1587.354614 358.810455,1587.237305 
	C359.816589,1587.383423 360.822723,1587.529541 362.108154,1588.327881 
	C362.192169,1590.374512 362.814178,1592.577271 362.273285,1594.442749 
	C358.646179,1606.952759 354.771606,1619.391113 350.309906,1632.156982 
	C347.460632,1640.960938 344.611389,1649.764893 341.728333,1658.673340 
	C378.915405,1658.673340 415.553192,1658.673340 452.993652,1658.673340 
	C437.789154,1649.486328 423.329376,1640.749268 408.971436,1631.273193 
	C412.699280,1622.130371 416.302185,1612.933716 420.213898,1603.870239 
	C421.872498,1600.027344 424.179230,1596.464355 427.085754,1592.759888 
	C428.417145,1592.826904 429.794128,1592.698242 431.071777,1592.995972 
	C435.911804,1594.123535 438.183380,1591.911987 439.853455,1587.505615 
	C442.562927,1580.357056 445.925812,1573.456665 448.992249,1566.442505 
	C483.459534,1487.604614 517.937195,1408.771118 552.378845,1329.922119 
	C563.299683,1304.920288 574.121643,1279.875122 585.720520,1254.731567 
	C588.723083,1258.179565 591.893677,1261.496460 594.700378,1265.097168 
	C609.978516,1284.697632 625.166992,1304.367798 640.184753,1324.866211 
	C639.503113,1332.589844 638.821411,1340.313477 637.736450,1348.743530 
	C637.593079,1349.393066 637.387207,1350.035645 637.315308,1350.692993 
	C633.282227,1387.578125 629.260132,1424.464355 625.237061,1461.350586 
	C621.141907,1498.896973 617.047058,1536.443481 612.535645,1574.400635 
	C612.614136,1575.281128 612.692566,1576.161499 612.796692,1577.670166 
	C612.624207,1578.702271 612.451782,1579.734253 612.130005,1581.316284 
	C612.409363,1581.526611 612.688782,1581.736938 613.032166,1581.932007 
	C613.032166,1581.932007 613.063965,1581.989868 613.517090,1582.547363 
	C615.361816,1582.480835 617.206543,1582.414307 619.641296,1582.261230 
	C620.030273,1582.324707 620.419189,1582.388184 620.806152,1583.206543 
	C618.578003,1596.461670 616.349792,1609.716797 613.431946,1623.335205 
	C611.512756,1632.058472 609.593506,1640.781860 607.650818,1649.611572 
	C642.368042,1649.611572 676.611633,1649.611572 711.608337,1649.611572 
	C697.427551,1640.586914 683.973755,1632.024902 670.754211,1622.576050 
	C672.781433,1611.251587 674.953613,1599.950073 676.740662,1588.587769 
	C677.227783,1585.490234 678.516846,1585.008423 681.255920,1584.932983 
	C683.169983,1584.880371 685.052002,1583.662598 687.047852,1582.197998 
	C691.728943,1563.826904 696.396973,1545.452515 701.093811,1527.085327 
	C713.662476,1477.935791 725.595703,1428.611816 738.996643,1379.690063 
	C753.162964,1327.973877 749.300476,1278.356323 726.100464,1230.038452 
	C713.137878,1203.041870 700.759766,1175.765137 688.057861,1148.642822 
	C680.441833,1132.380249 672.709290,1116.172119 665.193237,1099.193237 
	C669.086243,1080.499146 673.039062,1061.817383 676.859985,1043.108643 
	C685.499573,1000.806152 694.155701,958.506470 702.544678,916.154175 
	C703.357117,912.052734 705.068359,910.303589 708.829529,909.084106 
	C745.168335,897.302185 781.440979,885.316162 817.761292,873.476624 
	C832.452148,868.687805 847.213928,864.116577 861.960022,860.453003 
	C861.969299,862.285645 861.986694,864.118347 861.986755,865.950989 
	C861.991455,1073.882568 862.003113,1281.814209 861.980774,1489.745850 
	C861.979126,1504.684448 866.475159,1518.402466 874.550964,1530.580933 
	C890.990295,1555.371582 914.632141,1567.911377 944.349426,1567.935425 
	C1101.131104,1568.062378 1257.912964,1567.996338 1414.694702,1567.988525 
	C1419.189819,1567.988281 1423.684937,1567.891724 1428.914673,1567.840088 
	C1431.381104,1567.790894 1433.847412,1567.720581 1436.314087,1567.696167 
	C1452.961914,1567.531738 1469.621460,1566.928467 1486.253906,1567.361206 
	C1499.552124,1567.707031 1512.200562,1565.565430 1523.843872,1559.454956 
	C1553.622437,1543.826904 1569.045044,1519.013916 1569.051025,1485.255737 
	C1569.111572,1148.001831 1569.092163,810.747925 1569.044556,473.493988 
	C1569.043823,468.524902 1568.750977,463.500244 1567.988525,458.595703 
	C1562.104736,420.745453 1529.657715,392.429993 1491.695312,391.220734 
	C1469.556763,390.515533 1447.376831,391.114807 1424.255127,391.035400 
	C1264.688354,391.029083 1105.121704,391.037628 945.554932,390.992004 
	C930.652100,390.987732 916.419189,393.684357 903.500854,401.299194 
	C877.724182,416.493622 862.605530,438.879669 862.189880,469.055725 
	C861.487976,520.014221 862.004883,570.989441 861.950378,621.957520 
	C861.947937,624.230652 861.364136,626.503174 860.112854,628.942200 
	C833.347412,628.959839 806.581848,628.958435 779.816467,629.006897 
	C771.932800,629.021179 768.013550,631.838623 766.532104,638.325256 
	C765.259521,643.897156 767.872192,648.536804 774.523682,652.408020 
	C776.260437,652.777649 777.997131,653.468567 779.733948,653.468933 
	C807.134216,653.474243 834.534485,653.390747 861.958984,654.223450 
	C861.962402,687.075439 861.965820,719.927490 861.454651,753.237976 
	C851.966309,762.728027 842.575928,772.320007 832.900146,781.614929 
	C831.140259,783.305603 828.302063,784.320190 825.811218,784.727783 
	C813.850769,786.685120 801.832581,788.285767 789.846375,790.089294 
	C763.089600,794.115540 736.260681,797.737000 709.618103,802.417053 
	C694.778015,805.023865 680.365479,805.384399 665.818726,800.346008 
	C662.861267,796.900635 659.903870,793.455322 656.745544,789.571960 
	C656.544922,789.294495 656.274658,789.134766 655.762268,788.691650 
	C655.762268,788.691650 655.567810,788.300659 655.806519,787.449341 
	C656.189941,785.330444 656.706055,783.225647 656.933838,781.090149 
	C657.909546,771.940369 658.093750,771.636963 666.739197,769.250916 
	C679.495300,765.730408 689.205444,757.659851 696.585754,747.277832 
	C707.639954,731.727600 710.731445,714.245728 705.648071,695.664124 
	C704.509460,691.501953 705.211853,689.510132 709.821777,688.870667 
	C714.346802,688.243103 716.612732,683.880066 715.291077,679.534912 
	C713.888916,674.925232 710.218994,673.037781 705.028076,674.957275 
	C699.582336,676.971069 696.011047,676.386963 692.077881,671.242065 
	C688.508667,666.573303 682.713623,663.606079 678.095459,659.240479 
	C688.161133,646.631592 693.137085,632.581055 690.560791,616.038208 
	C660.468201,621.492859 630.647217,626.539856 600.988220,632.406128 
	C582.611145,636.040894 566.599121,653.497192 571.679688,677.319397 
	C574.554749,690.800476 576.942749,704.406494 578.945190,718.044983 
	C580.178101,726.442444 583.709839,732.392761 592.006226,735.799316 
	C595.153137,741.181152 598.344238,746.537842 601.421814,751.958984 
	C602.433411,753.740723 604.151306,755.888184 603.825928,757.526917 
	C602.548096,763.963318 600.584229,770.263489 598.111572,776.732117 
	C597.084595,776.776001 596.057617,776.819885 594.820068,776.587524 
	C594.543213,776.700439 594.266418,776.813354 593.188477,777.007324 
	C584.431763,777.929504 579.653320,782.241577 578.237793,790.716187 
	C577.669678,794.117615 577.405579,797.569824 576.258850,801.181824 
	C570.951599,802.483643 565.621765,803.700745 560.341614,805.104431 
	C548.535278,808.243042 537.320312,812.517334 528.518677,822.214783 
	C528.199097,822.378906 528.004089,822.637146 527.998474,822.999084 
M616.395386,258.479309 
	C614.295715,259.007263 612.195984,259.535217 609.784241,260.452179 
	C609.564880,260.718353 609.288147,260.894318 608.237488,261.103088 
	C605.755310,264.192902 607.227173,267.198212 610.156128,267.400879 
	C614.087402,267.672882 618.148682,266.067047 622.880310,265.190857 
	C623.592346,265.049591 624.304321,264.908295 625.366333,265.343658 
	C626.745667,264.398132 629.210632,263.498718 629.253174,262.496399 
	C629.319092,260.945404 627.960693,258.217590 626.793457,257.975006 
	C624.701050,257.540100 622.301758,258.582153 619.272095,258.981750 
	C618.514160,258.956940 617.756287,258.932098 616.395386,258.479309 
M397.361359,493.059052 
	C397.320099,494.381470 397.278839,495.703918 396.638214,497.580139 
	C396.538147,500.712097 396.018646,503.913177 396.518646,506.946228 
	C396.761292,508.418091 398.976288,510.674377 400.185516,510.605103 
	C401.809662,510.512085 404.535706,508.638428 404.673737,507.309509 
	C405.228027,501.973267 405.238342,496.529297 404.786621,491.181183 
	C404.691437,490.054474 401.872955,488.690796 400.149078,488.406067 
	C399.489868,488.297150 398.381714,490.905914 397.361359,493.059052 
M1639.504395,1420.032227 
	C1634.040039,1420.281006 1628.542847,1420.268433 1623.132690,1420.948364 
	C1621.636230,1421.136475 1620.398682,1423.384766 1619.042480,1424.687988 
	C1620.446289,1426.079712 1621.679688,1427.747681 1623.318115,1428.759521 
	C1624.300171,1429.365967 1625.915527,1428.983398 1627.246338,1428.983521 
	C1711.031860,1428.989624 1794.817505,1428.989624 1878.603027,1428.984131 
	C1879.933716,1428.984009 1881.614136,1429.398560 1882.515015,1428.755737 
	C1883.946533,1427.734375 1885.490356,1426.090332 1885.757812,1424.502686 
	C1885.924438,1423.513306 1884.026978,1421.471436 1882.708862,1421.084839 
	C1880.054321,1420.306274 1877.163086,1420.072388 1874.369263,1420.070679 
	C1796.413696,1420.022827 1718.458252,1420.032349 1639.504395,1420.032227 
M125.500298,1420.032227 
	C120.170395,1420.032959 114.839981,1420.078613 109.510788,1420.017578 
	C106.292793,1419.980713 103.146835,1420.215088 103.080597,1424.376221 
	C103.008820,1428.885864 106.356544,1429.006958 109.739021,1429.005859 
	C177.195602,1428.983398 244.652176,1428.991699 312.108765,1428.963867 
	C313.748383,1428.963135 315.663269,1429.079468 316.950928,1428.308228 
	C318.272156,1427.517090 319.617920,1425.754395 319.736206,1424.316772 
	C319.817413,1423.329468 317.985229,1421.550293 316.719788,1421.215454 
	C313.869537,1420.461304 310.840302,1420.080078 307.883423,1420.077148 
	C247.422379,1420.017456 186.961273,1420.032349 125.500298,1420.032227 
M785.481079,312.019562 
	C783.315979,318.399475 784.753479,320.314758 792.390808,320.457825 
	C806.833618,320.728424 821.279602,320.868164 835.724915,320.943024 
	C842.955139,320.980499 844.022339,318.840881 840.363831,312.518616 
	C832.708496,299.289459 825.200317,285.974182 817.422729,272.817841 
	C816.291138,270.903564 813.941467,268.379852 812.276184,268.466248 
	C810.429688,268.562073 808.164062,271.012909 807.044250,272.985291 
	C799.828125,285.695038 792.875732,298.554504 785.481079,312.019562 
M648.368958,265.388855 
	C650.340820,265.224548 652.459961,265.452118 654.242126,264.782776 
	C655.935181,264.146881 657.275757,262.572845 658.771362,261.411346 
	C657.453308,259.919495 656.235718,257.271057 654.798889,257.146240 
	C649.916870,256.722107 644.938049,256.992340 640.042908,257.472839 
	C638.992920,257.575928 637.313110,259.738220 637.400757,260.833679 
	C637.513245,262.239075 638.868774,264.274384 640.136536,264.698059 
	C642.405518,265.456268 645.009277,265.212738 648.368958,265.388855 
M404.703094,525.706848 
	C404.700134,525.211365 404.683990,524.715576 404.696381,524.220459 
	C404.772919,521.158203 404.321899,518.306519 400.390472,518.448547 
	C396.700958,518.581848 396.535583,521.518494 396.610168,524.239502 
	C396.718506,528.192322 396.666595,532.209106 397.413757,536.056641 
	C397.729218,537.681274 399.904541,538.944763 401.234436,540.372437 
	C402.552307,538.749878 404.665894,537.276611 405.004822,535.470398 
	C405.536804,532.635620 404.871613,529.576111 404.703094,525.706848 
M407.256470,463.652100 
	C406.078552,462.187347 404.900665,460.722595 403.722778,459.257843 
	C402.357788,460.462463 400.075958,461.487701 399.798615,462.905121 
	C398.943939,467.273132 398.526703,471.799866 398.646759,476.245819 
	C398.688782,477.802032 400.784943,479.302765 401.943085,480.828857 
	C403.335510,479.504578 405.618866,478.368866 405.946808,476.819275 
	C406.798889,472.793427 406.791565,468.585724 407.256470,463.652100 
M464.951080,337.493042 
	C466.073730,336.270325 467.683899,335.218628 468.188690,333.779205 
	C468.749115,332.181183 468.997803,329.564911 468.095642,328.618866 
	C467.195709,327.675140 463.965759,327.450104 463.038361,328.302979 
	C459.522400,331.536346 456.295959,335.167511 453.488251,339.032776 
	C452.737244,340.066681 453.269318,343.270386 454.282379,344.007568 
	C455.342102,344.778778 458.046356,344.317627 459.392090,343.427734 
	C461.410950,342.092712 462.871857,339.913910 464.951080,337.493042 
M745.141418,270.371277 
	C740.199829,269.073608 735.303040,267.519470 730.287720,266.644226 
	C728.896301,266.401367 727.153320,268.173065 725.571655,269.020508 
	C726.477844,270.572723 727.057800,273.054016 728.349609,273.507599 
	C732.686707,275.030334 737.229858,276.168518 741.784851,276.810638 
	C746.288513,277.445526 747.396667,275.482910 745.141418,270.371277 
M536.371643,278.131958 
	C532.614136,279.828400 528.633179,281.177917 525.204834,283.385529 
	C523.755615,284.318726 523.469177,287.057587 522.654236,288.975739 
	C524.559814,289.438782 526.722290,290.710175 528.319397,290.202576 
	C532.051147,289.016571 535.662231,287.222839 539.014954,285.172729 
	C540.572998,284.220062 541.415466,282.097168 542.582336,280.504730 
	C540.735718,279.614655 538.889160,278.724548 536.371643,278.131958 
M473.382812,321.140533 
	C474.833405,323.802704 476.984894,324.764832 479.514374,322.905121 
	C483.242950,320.163757 486.923523,317.295868 490.221893,314.070129 
	C491.141571,313.170685 491.117645,310.657471 490.615723,309.197784 
	C490.316742,308.328369 487.545776,307.257111 487.076965,307.660492 
	C482.318237,311.755157 477.804993,316.135101 473.382812,321.140533 
M570.491760,272.902985 
	C571.097046,269.772888 569.768738,267.569336 566.644226,268.216461 
	C561.505188,269.280884 556.451538,270.926819 551.547913,272.811615 
	C550.597534,273.176910 549.871338,275.918060 550.216370,277.261688 
	C550.466797,278.237000 552.912292,279.576691 553.935730,279.270782 
	C559.426758,277.629578 564.778870,275.523407 570.491760,272.902985 
M422.958313,394.744476 
	C424.702942,393.870361 427.081696,393.439301 428.064301,392.032837 
	C430.332001,388.786987 432.305878,385.202301 433.610626,381.478821 
	C434.183990,379.842621 432.834717,377.532654 432.358398,375.528595 
	C430.545746,376.201202 427.973297,376.346252 427.068604,377.649231 
	C424.726440,381.022522 422.787292,384.784790 421.376343,388.643707 
	C420.780945,390.272125 421.917328,392.533722 422.958313,394.744476 
M667.117004,260.719635 
	C667.983765,262.271179 668.631409,264.960876 669.755249,265.177216 
	C674.611633,266.112061 679.607483,266.605438 684.552551,266.605286 
	C685.840515,266.605255 687.773865,264.414703 688.172119,262.903748 
	C688.407898,262.008972 686.392151,259.659821 685.088379,259.383850 
	C681.380798,258.599030 677.517639,258.282318 673.718445,258.301788 
	C671.596008,258.312683 669.478943,259.358002 667.117004,260.719635 
M422.608765,620.068542 
	C421.314850,616.670898 420.079834,613.249146 418.707458,609.883545 
	C417.700439,607.413940 415.923828,605.020569 413.201721,606.707153 
	C411.899170,607.514221 411.229065,610.696045 411.590546,612.544556 
	C412.278778,616.063660 413.535553,619.612183 415.302429,622.724976 
	C416.300873,624.483887 418.784241,625.399963 420.598785,626.695679 
	C421.339722,624.749146 422.080627,622.802612 422.608765,620.068542 
M403.589905,584.993896 
	C404.569702,588.495544 405.249481,592.126038 406.671478,595.437805 
	C407.271118,596.834290 409.435883,597.558777 410.889191,598.588745 
	C411.807190,596.867432 413.584290,595.084961 413.467010,593.437378 
	C413.211487,589.846924 412.357880,586.180054 411.030823,582.828613 
	C410.205475,580.744324 407.999756,577.625244 406.530609,577.688416 
	C402.850525,577.846924 402.940430,581.235657 403.589905,584.993896 
M700.098450,261.205963 
	C698.927246,262.505890 697.168213,263.663422 696.805847,265.159302 
	C696.589417,266.052856 698.381104,268.241150 699.583069,268.525848 
	C704.059021,269.585876 708.648132,270.378448 713.231384,270.647949 
	C714.614685,270.729309 716.116882,268.789337 717.564636,267.775238 
	C716.409912,266.244110 715.517151,263.766571 714.051025,263.360901 
	C709.794617,262.183136 705.308350,261.836304 700.098450,261.205963 
M442.186401,366.873322 
	C444.445892,363.610901 447.069031,360.527863 448.805511,357.007477 
	C449.626617,355.342896 448.750183,352.840973 448.642853,350.718414 
	C446.616394,351.276154 443.919006,351.209869 442.700836,352.519531 
	C440.031006,355.389771 437.781769,358.794403 436.037781,362.316071 
	C435.284058,363.837952 436.206177,366.189697 436.367065,368.164490 
	C438.137207,367.913086 439.907349,367.661682 442.186401,366.873322 
M510.170624,291.381744 
	C506.519287,293.653687 502.615082,295.621643 499.340118,298.346008 
	C498.015503,299.447906 498.064789,302.201416 497.488892,304.203369 
	C499.435394,304.400909 501.724243,305.347443 503.259613,304.645599 
	C506.844513,303.006805 510.247833,300.804688 513.350098,298.356140 
	C514.632141,297.344299 515.767273,294.932800 515.444763,293.501221 
	C515.204346,292.433838 512.514648,291.918152 510.170624,291.381744 
M404.703094,436.111725 
	C403.978546,439.187897 402.818329,442.246704 402.694580,445.346863 
	C402.621613,447.175293 403.748169,450.162140 405.110901,450.714508 
	C408.302948,452.008453 409.858734,449.485016 410.489685,446.566864 
	C411.156433,443.483276 411.818115,440.396881 412.386047,437.294189 
	C412.858734,434.712067 413.929504,431.632233 410.279846,430.602356 
	C406.482452,429.530762 405.323029,432.191864 404.703094,436.111725 
M410.917389,414.243713 
	C410.671204,414.860077 410.113342,415.546600 410.233521,416.080475 
	C410.716705,418.227112 410.798279,421.471558 412.156647,422.196716 
	C414.710083,423.559998 416.592407,421.595032 417.442871,418.720245 
	C418.476105,415.227356 419.944824,411.865753 421.105652,408.407257 
	C421.919800,405.981506 422.690063,403.355286 419.230988,402.277405 
	C415.954346,401.256378 414.817352,403.628815 413.878510,406.050232 
	C412.921051,408.519684 412.047150,411.021545 410.917389,414.243713 
M582.559387,271.387756 
	C587.093323,270.542755 591.706604,269.970581 596.113586,268.689240 
	C597.466003,268.296021 599.217041,265.819061 599.030701,264.554932 
	C598.842407,263.277252 596.377075,261.283264 595.086182,261.409698 
	C590.530701,261.855865 585.979370,262.836792 581.585449,264.147614 
	C580.238647,264.549377 578.614197,266.638000 578.575439,267.995758 
	C578.543335,269.123627 580.651489,270.312561 582.559387,271.387756 
M399.635590,549.524658 
	C399.983704,555.267700 400.130676,561.036560 400.861450,566.730469 
	C400.996307,567.781372 403.580475,569.319641 404.871094,569.175232 
	C405.970367,569.052246 407.697510,566.797607 407.648071,565.545105 
	C407.471741,561.078430 406.625031,556.640625 406.092224,552.184753 
	C405.628326,548.305054 403.576263,547.437866 399.635590,549.524658 
M761.472229,282.787689 
	C764.310669,283.601746 767.691162,284.270599 768.245483,280.546265 
	C768.468262,279.049561 765.413452,276.957001 763.668335,275.330872 
	C763.009155,274.716705 761.775574,274.274872 760.909851,274.414032 
	C758.755371,274.760284 755.613281,274.837311 754.771179,276.199310 
	C753.213745,278.718170 755.107727,280.785645 757.937561,281.618683 
	C758.885254,281.897675 759.800171,282.287842 761.472229,282.787689 
M431.801849,646.625732 
	C433.910522,643.192505 431.453308,634.741089 427.742157,633.892151 
	C426.422485,633.590271 423.782288,634.903992 423.239594,636.137695 
	C421.572937,639.926758 426.642487,646.508789 431.801849,646.625732 
z"/>
<path fill="#FFFFFF" opacity="1.000000" stroke="none" 
	d="
M1.000000,1814.500000 
	C1.307719,1814.122681 1.564623,1814.313599 1.885355,1814.786499 
	C1.666667,1815.000000 1.333333,1815.000000 1.000000,1814.500000 
z"/>
<path fill="#FFFFFF" opacity="1.000000" stroke="none" 
	d="
M1.500000,1.000000 
	C1.886545,1.314195 1.694428,1.569094 1.211824,1.882348 
	C1.000000,1.666667 1.000000,1.333333 1.500000,1.000000 
z"/>
<path fill="#D3D3D3" opacity="1.000000" stroke="none" 
	d="
M861.051086,628.775940 
	C861.364136,626.503174 861.947937,624.230652 861.950378,621.957520 
	C862.004883,570.989441 861.487976,520.014221 862.189880,469.055725 
	C862.605530,438.879669 877.724182,416.493622 903.500854,401.299194 
	C916.419189,393.684357 930.652100,390.987732 945.554932,390.992004 
	C1105.121704,391.037628 1264.688354,391.029083 1424.987061,391.328125 
	C1443.458130,394.509003 1459.153809,401.791870 1471.818481,414.574829 
	C1488.594727,431.507629 1495.894165,452.485504 1495.896729,476.056366 
	C1495.932373,811.589111 1495.936279,1147.121948 1495.820312,1482.654663 
	C1495.817749,1490.065674 1495.188965,1497.697998 1493.367432,1504.848877 
	C1485.064209,1537.443970 1464.228516,1557.719238 1431.616821,1565.949463 
	C1430.390381,1566.259033 1429.322144,1567.195557 1428.180054,1567.839966 
	C1423.684937,1567.891724 1419.189819,1567.988281 1414.694702,1567.988525 
	C1257.912964,1567.996338 1101.131104,1568.062378 944.349426,1567.935425 
	C914.632141,1567.911377 890.990295,1555.371582 874.550964,1530.580933 
	C866.475159,1518.402466 861.979126,1504.684448 861.980774,1489.745850 
	C862.003113,1281.814209 861.991455,1073.882568 861.986755,865.950989 
	C861.986694,864.118347 861.969299,862.285645 862.149780,859.720581 
	C866.174011,855.849365 870.573669,853.184082 873.699707,849.452026 
	C877.616455,844.776001 880.467407,839.211060 883.814270,834.053101 
	C891.857849,821.657349 899.922363,809.275085 908.019897,797.327759 
	C908.066895,805.343201 908.076965,812.918335 908.077026,820.493408 
	C908.078003,1004.485168 908.075439,1188.476929 908.086548,1372.468628 
	C908.087097,1380.872314 907.239502,1380.027832 915.516113,1380.028442 
	C1088.508301,1380.040039 1261.500610,1380.039673 1434.492798,1380.029297 
	C1442.805908,1380.028809 1441.953979,1380.856812 1441.954346,1372.500610 
	C1441.963867,1112.345703 1441.962402,852.190674 1441.957642,592.035706 
	C1441.957520,589.703430 1441.890015,587.371155 1441.897949,584.567993 
	C1441.953125,556.601013 1441.965698,529.104980 1441.974731,501.608887 
	C1441.977173,494.025208 1441.972290,494.022675 1434.248657,494.022675 
	C1261.772583,494.022217 1089.296387,494.022308 916.820312,494.022827 
	C915.320557,494.022827 913.817810,494.091919 912.321594,494.020538 
	C909.445496,493.883423 908.016479,495.022186 908.027527,498.079468 
	C908.132446,527.071533 908.178650,556.063843 908.195557,585.518677 
	C908.125427,598.132996 908.061279,610.284912 908.115845,622.436340 
	C908.125305,624.555176 908.634399,626.671692 908.456543,628.872681 
	C892.350586,628.895996 876.700806,628.835938 861.051086,628.775940 
M1167.325195,1522.086304 
	C1194.631836,1520.417480 1214.932495,1496.229370 1212.465576,1469.038086 
	C1209.965454,1441.481689 1185.316162,1421.642090 1158.059204,1424.861816 
	C1131.011353,1428.056885 1110.149414,1452.555054 1115.566162,1482.796021 
	C1119.679810,1505.761841 1140.912842,1524.059937 1167.325195,1522.086304 
M1159.500000,448.925476 
	C1184.459961,448.925659 1209.420044,448.936157 1234.380005,448.917999 
	C1239.815552,448.914032 1242.189453,447.166901 1241.953247,443.272858 
	C1241.666870,438.550842 1238.369507,437.970245 1234.524048,437.974304 
	C1198.581665,438.012054 1162.639282,437.993134 1126.696899,438.006165 
	C1121.320190,438.008087 1118.722900,439.829346 1119.066772,443.567932 
	C1119.480469,448.067383 1122.623901,448.982086 1126.551514,448.951263 
	C1137.200317,448.867767 1147.850464,448.924316 1159.500000,448.925476 
M1099.313354,450.747253 
	C1100.649902,450.143219 1102.228271,449.811462 1103.275024,448.881317 
	C1105.858521,446.585602 1107.205200,443.294403 1104.922241,440.543152 
	C1103.184326,438.448730 1099.756836,436.182953 1097.483765,436.542145 
	C1095.144653,436.911804 1092.369629,440.033142 1091.448242,442.557465 
	C1090.104004,446.240540 1093.160889,449.215240 1099.313354,450.747253 
z"/>
<path fill="#A4A4A4" opacity="1.000000" stroke="none" 
	d="
M1428.547363,1567.840088 
	C1429.322144,1567.195557 1430.390381,1566.259033 1431.616821,1565.949463 
	C1464.228516,1557.719238 1485.064209,1537.443970 1493.367432,1504.848877 
	C1495.188965,1497.697998 1495.817749,1490.065674 1495.820312,1482.654663 
	C1495.936279,1147.121948 1495.932373,811.589111 1495.896729,476.056366 
	C1495.894165,452.485504 1488.594727,431.507629 1471.818481,414.574829 
	C1459.153809,401.791870 1443.458130,394.509003 1425.467163,391.374023 
	C1447.376831,391.114807 1469.556763,390.515533 1491.695312,391.220734 
	C1529.657715,392.429993 1562.104736,420.745453 1567.988525,458.595703 
	C1568.750977,463.500244 1569.043823,468.524902 1569.044556,473.493988 
	C1569.092163,810.747925 1569.111572,1148.001831 1569.051025,1485.255737 
	C1569.045044,1519.013916 1553.622437,1543.826904 1523.843872,1559.454956 
	C1512.200562,1565.565430 1499.552124,1567.707031 1486.253906,1567.361206 
	C1469.621460,1566.928467 1452.961914,1567.531738 1436.314087,1567.696167 
	C1433.847412,1567.720581 1431.381104,1567.790894 1428.547363,1567.840088 
z"/>
<path fill="#FFBE37" opacity="1.000000" stroke="none" 
	d="
M907.978394,796.887329 
	C899.922363,809.275085 891.857849,821.657349 883.814270,834.053101 
	C880.467407,839.211060 877.616455,844.776001 873.699707,849.452026 
	C870.573669,853.184082 866.174011,855.849365 862.141479,859.217163 
	C847.213928,864.116577 832.452148,868.687805 817.761292,873.476624 
	C781.440979,885.316162 745.168335,897.302185 708.829529,909.084106 
	C705.068359,910.303589 703.357117,912.052734 702.544678,916.154175 
	C694.155701,958.506470 685.499573,1000.806152 676.859985,1043.108643 
	C673.039062,1061.817383 669.086243,1080.499146 664.642822,1099.602661 
	C656.283997,1099.715454 648.477539,1099.345337 640.666748,1099.138184 
	C626.361023,1098.758667 612.053162,1098.457153 597.745483,1098.156372 
	C580.605225,1097.795776 563.463623,1097.495605 546.323608,1097.122314 
	C527.192444,1096.705811 508.062317,1096.237061 488.931732,1095.791016 
	C493.139954,1060.542114 497.348175,1025.293091 501.710602,989.267761 
	C502.223541,986.720276 502.722931,984.964661 502.919037,983.175781 
	C504.642029,967.456482 506.311005,951.731262 508.003479,935.581665 
	C509.104492,925.320984 510.115875,915.476379 511.310791,905.654175 
	C513.142395,890.598694 515.014893,875.547180 517.037415,860.516479 
	C518.198181,851.890442 519.571472,843.287903 521.095337,834.718567 
	C521.637878,831.667969 522.907166,828.746582 523.844727,825.766174 
	C523.844727,825.766174 523.893860,825.844421 524.178589,825.858337 
	C524.985535,825.281372 525.507690,824.690491 526.029846,824.099609 
	C526.029846,824.099609 526.035278,824.021973 526.353210,823.972046 
	C527.112183,823.592651 527.553284,823.263245 527.994324,822.933838 
	C527.994324,822.933838 527.998474,822.999084 528.175537,822.887085 
	C528.616333,822.598999 528.834229,822.377686 529.006226,822.111145 
	C537.320312,812.517334 548.535278,808.243042 560.341614,805.104431 
	C565.621765,803.700745 570.951599,802.483643 577.066406,801.088867 
	C579.358276,800.909668 580.848145,800.878174 582.326050,800.728333 
	C594.439941,799.499634 606.565857,797.128662 618.660400,797.283264 
	C634.427002,797.484619 650.168152,799.682983 665.920227,801.022095 
	C680.365479,805.384399 694.778015,805.023865 709.618103,802.417053 
	C736.260681,797.737000 763.089600,794.115540 789.846375,790.089294 
	C801.832581,788.285767 813.850769,786.685120 825.811218,784.727783 
	C828.302063,784.320190 831.140259,783.305603 832.900146,781.614929 
	C842.575928,772.320007 851.966309,762.728027 862.053650,753.044067 
	C874.171570,741.764038 885.728516,730.716919 897.187744,719.569458 
	C900.954590,715.905151 904.468201,711.980530 908.422058,708.082031 
	C918.265442,699.034485 927.784302,690.079712 937.298340,681.129517 
	C939.022339,681.953796 940.499817,682.660156 942.024353,683.687805 
	C949.307861,690.040283 956.544373,696.071594 963.961426,702.287354 
	C964.390137,702.708313 964.638245,702.944763 964.864136,703.489624 
	C964.922913,704.199524 965.003906,704.601013 965.086792,705.279053 
	C965.071838,705.739136 965.055054,705.922729 964.831421,706.212769 
	C964.362793,706.566040 964.308105,706.852478 964.423950,707.240723 
	C964.387207,707.302734 964.288574,707.408020 963.993042,707.455566 
	C963.528442,708.039490 963.359314,708.575867 963.070557,709.410156 
	C962.758240,710.089844 962.565369,710.471680 962.240479,710.943542 
	C961.947998,711.188782 961.854797,711.377197 961.615112,711.876282 
	C950.937988,728.545715 940.415833,744.900696 930.030884,761.342407 
	C922.585083,773.130676 915.322693,785.034912 907.978394,796.887329 
z"/>
<path fill="#FE6101" opacity="1.000000" stroke="none" 
	d="
M488.872986,1095.887573 
	C508.062317,1096.237061 527.192444,1096.705811 546.323608,1097.122314 
	C563.463623,1097.495605 580.605225,1097.795776 597.745483,1098.156372 
	C612.053162,1098.457153 626.361023,1098.758667 640.666748,1099.138184 
	C648.477539,1099.345337 656.283997,1099.715454 664.560791,1099.975830 
	C672.709290,1116.172119 680.441833,1132.380249 688.057861,1148.642822 
	C700.759766,1175.765137 713.137878,1203.041870 726.100464,1230.038452 
	C749.300476,1278.356323 753.162964,1327.973877 738.996643,1379.690063 
	C725.595703,1428.611816 713.662476,1477.935791 701.093811,1527.085327 
	C696.396973,1545.452515 691.728943,1563.826904 686.641052,1582.795166 
	C681.627075,1583.574463 677.014404,1583.999390 672.413696,1583.895874 
	C655.209717,1583.508301 638.009644,1582.947510 620.808105,1582.451660 
	C620.419189,1582.388184 620.030273,1582.324707 618.937317,1582.159424 
	C616.510193,1582.035034 614.787109,1582.012451 613.063965,1581.989868 
	C613.063965,1581.989868 613.032166,1581.932007 612.946289,1581.708618 
	C612.782959,1581.151611 612.589233,1580.911987 612.279297,1580.766357 
	C612.451782,1579.734253 612.624207,1578.702271 612.926025,1576.991455 
	C613.020935,1575.538452 612.986511,1574.764160 612.952026,1573.989868 
	C617.047058,1536.443481 621.141907,1498.896973 625.237061,1461.350586 
	C629.260132,1424.464355 633.282227,1387.578125 637.315308,1350.692993 
	C637.387207,1350.035645 637.593079,1349.393066 638.186584,1348.671387 
	C638.893616,1351.640625 640.771240,1352.092407 643.452637,1352.056763 
	C653.271179,1351.926514 663.092590,1352.025879 672.912720,1351.987915 
	C674.117737,1351.983154 675.321594,1351.671021 677.555969,1351.356323 
	C670.144226,1345.640137 663.684875,1340.489014 657.041382,1335.587524 
	C651.603455,1331.575439 645.946289,1327.860596 640.386292,1324.014038 
	C625.166992,1304.367798 609.978516,1284.697632 594.700378,1265.097168 
	C591.893677,1261.496460 588.723083,1258.179565 585.452393,1254.520264 
	C584.880981,1253.455688 584.771667,1252.452637 584.245789,1251.770874 
	C571.692261,1235.496460 559.126648,1219.230957 546.493530,1203.018311 
	C536.612061,1190.337036 526.671204,1177.701904 516.694397,1165.095459 
	C505.136108,1150.491089 496.285522,1134.519165 492.276825,1116.192139 
	C490.831451,1109.584229 490.057129,1102.829590 488.976562,1096.141846 
	C488.976562,1096.141846 488.814240,1095.984253 488.872986,1095.887573 
z"/>
<path fill="#FE4301" opacity="1.000000" stroke="none" 
	d="
M488.634857,1096.259033 
	C490.057129,1102.829590 490.831451,1109.584229 492.276825,1116.192139 
	C496.285522,1134.519165 505.136108,1150.491089 516.694397,1165.095459 
	C526.671204,1177.701904 536.612061,1190.337036 546.493530,1203.018311 
	C559.126648,1219.230957 571.692261,1235.496460 584.245789,1251.770874 
	C584.771667,1252.452637 584.880981,1253.455688 585.086548,1254.579468 
	C574.121643,1279.875122 563.299683,1304.920288 552.378845,1329.922119 
	C517.937195,1408.771118 483.459534,1487.604614 448.992249,1566.442505 
	C445.925812,1573.456665 442.562927,1580.357056 439.853455,1587.505615 
	C438.183380,1591.911987 435.911804,1594.123535 431.071777,1592.995972 
	C429.794128,1592.698242 428.417145,1592.826904 426.283783,1592.545166 
	C404.264160,1590.778931 383.046509,1589.227295 361.828857,1587.675537 
	C360.822723,1587.529541 359.816589,1587.383423 358.063385,1587.115234 
	C356.541107,1587.024658 355.765869,1587.056152 354.990662,1587.087769 
	C354.570312,1585.876831 353.541016,1584.500488 353.818390,1583.479004 
	C361.706787,1554.429443 369.724579,1525.414917 377.725494,1496.395996 
	C398.147217,1422.327271 418.567627,1348.258057 438.995087,1274.191040 
	C454.649811,1217.428955 470.311798,1160.668945 485.984436,1103.911743 
	C486.683441,1101.380493 487.520447,1098.887207 488.634857,1096.259033 
z"/>
<path fill="#FC9007" opacity="1.000000" stroke="none" 
	d="
M507.996002,936.007812 
	C506.311005,951.731262 504.642029,967.456482 502.919037,983.175781 
	C502.722931,984.964661 502.223541,986.720276 501.876770,988.780334 
	C499.470367,989.339905 496.636902,988.882874 494.695892,989.990173 
	C465.925415,1006.403076 437.278320,1023.032104 408.591675,1039.592041 
	C383.219879,1054.238647 357.845490,1068.880493 332.448547,1083.483398 
	C326.709442,1086.783203 321.751129,1086.485474 317.653656,1082.836548 
	C313.940613,1079.529907 312.341003,1074.050415 314.612396,1069.680420 
	C315.918030,1067.168457 318.115753,1064.669189 320.546997,1063.259888 
	C369.647888,1034.798218 418.843872,1006.500549 468.007965,978.147827 
	C470.398773,976.769043 472.673157,975.188477 475.055023,973.667908 
	C472.572144,969.054749 469.079285,970.501648 466.029877,971.348389 
	C451.606201,975.353455 437.230530,979.531311 422.836365,983.642700 
	C397.077759,991.000061 371.326874,998.384644 345.553619,1005.690308 
	C337.927429,1007.851990 331.993256,1004.570801 330.002441,997.337952 
	C328.337097,991.287598 332.100098,985.035217 338.680786,983.166077 
	C373.092072,973.391846 407.514008,963.655151 442.707336,953.901978 
	C445.920044,952.941223 448.297943,951.773499 450.805267,951.061462 
	C464.112335,947.282471 477.430664,943.538818 490.790222,939.950806 
	C496.468872,938.425720 502.257416,937.309753 507.996002,936.007812 
z"/>
<path fill="#232928" opacity="1.000000" stroke="none" 
	d="
M591.996521,735.042236 
	C583.709839,732.392761 580.178101,726.442444 578.945190,718.044983 
	C576.942749,704.406494 574.554749,690.800476 571.679688,677.319397 
	C566.599121,653.497192 582.611145,636.040894 600.988220,632.406128 
	C630.647217,626.539856 660.468201,621.492859 690.560791,616.038208 
	C693.137085,632.581055 688.161133,646.631592 677.685425,659.696777 
	C673.398132,663.784546 669.689575,667.623657 665.577332,670.966003 
	C663.281921,672.831787 662.669128,674.451294 663.477844,677.289856 
	C665.181213,683.268982 666.488098,689.361023 668.057251,695.816406 
	C657.802734,691.084778 649.628235,692.370605 644.437378,699.141113 
	C638.610291,706.741699 639.779419,714.991516 648.220886,724.679504 
	C643.582153,725.627258 639.100342,726.631592 634.584595,727.449158 
	C620.395447,730.018005 606.193481,732.516479 591.996521,735.042236 
z"/>
<path fill="#F9C29E" opacity="1.000000" stroke="none" 
	d="
M592.001343,735.420776 
	C606.193481,732.516479 620.395447,730.018005 634.584595,727.449158 
	C639.100342,726.631592 643.582153,725.627258 648.220886,724.679504 
	C639.779419,714.991516 638.610291,706.741699 644.437378,699.141113 
	C649.628235,692.370605 657.802734,691.084778 668.057251,695.816406 
	C666.488098,689.361023 665.181213,683.268982 663.477844,677.289856 
	C662.669128,674.451294 663.281921,672.831787 665.577332,670.966003 
	C669.689575,667.623657 673.398132,663.784546 677.587646,660.020874 
	C682.713623,663.606079 688.508667,666.573303 692.077881,671.242065 
	C696.011047,676.386963 699.582336,676.971069 705.028076,674.957275 
	C710.218994,673.037781 713.888916,674.925232 715.291077,679.534912 
	C716.612732,683.880066 714.346802,688.243103 709.821777,688.870667 
	C705.211853,689.510132 704.509460,691.501953 705.648071,695.664124 
	C710.731445,714.245728 707.639954,731.727600 696.585754,747.277832 
	C689.205444,757.659851 679.495300,765.730408 666.739197,769.250916 
	C658.093750,771.636963 657.909546,771.940369 656.933838,781.090149 
	C656.706055,783.225647 656.189941,785.330444 655.371460,787.779907 
	C651.947632,786.363770 649.082153,784.346924 645.949097,782.915955 
	C630.918762,776.051331 615.055847,775.067932 598.875122,776.614258 
	C600.584229,770.263489 602.548096,763.963318 603.825928,757.526917 
	C604.151306,755.888184 602.433411,753.740723 601.421814,751.958984 
	C598.344238,746.537842 595.153137,741.181152 592.001343,735.420776 
z"/>
<path fill="#F8AD28" opacity="1.000000" stroke="none" 
	d="
M508.003479,935.581665 
	C502.257416,937.309753 496.468872,938.425720 490.790222,939.950806 
	C477.430664,943.538818 464.112335,947.282471 450.805267,951.061462 
	C448.297943,951.773499 445.920044,952.941223 443.095062,953.871216 
	C441.841827,952.384644 441.248260,950.642517 440.069611,949.508423 
	C419.015808,929.251770 420.669250,899.493042 444.358795,882.184509 
	C470.431091,863.134949 496.866760,844.582764 523.494385,825.790039 
	C522.907166,828.746582 521.637878,831.667969 521.095337,834.718567 
	C519.571472,843.287903 518.198181,851.890442 517.037415,860.516479 
	C515.014893,875.547180 513.142395,890.598694 511.310791,905.654175 
	C510.115875,915.476379 509.104492,925.320984 508.003479,935.581665 
z"/>
<path fill="#FC9007" opacity="1.000000" stroke="none" 
	d="
M860.581970,628.859070 
	C876.700806,628.835938 892.350586,628.895996 908.931030,628.950684 
	C932.560974,629.009644 955.260254,629.073914 977.828003,629.446167 
	C973.325012,636.218079 969.118774,642.805176 964.464600,649.058899 
	C963.312378,650.607178 960.753662,651.767639 958.760193,651.902161 
	C953.632141,652.248352 948.458618,651.870667 943.303223,651.867920 
	C886.909912,651.837830 830.516663,651.824158 774.123352,651.806030 
	C767.872192,648.536804 765.259521,643.897156 766.532104,638.325256 
	C768.013550,631.838623 771.932800,629.021179 779.816467,629.006897 
	C806.581848,628.958435 833.347412,628.959839 860.581970,628.859070 
z"/>
<path fill="#D3D3D3" opacity="1.000000" stroke="none" 
	d="
M908.097534,708.174866 
	C904.468201,711.980530 900.954590,715.905151 897.187744,719.569458 
	C885.728516,730.716919 874.171570,741.764038 862.310913,752.814819 
	C861.965820,719.927490 861.962402,687.075439 862.415527,653.694153 
	C877.982605,653.244019 893.093140,653.323181 908.161255,653.832214 
	C908.111816,672.232971 908.104675,690.203918 908.097534,708.174866 
z"/>
<path fill="#FAC59B" opacity="1.000000" stroke="none" 
	d="
M908.203674,653.402405 
	C893.093140,653.323181 877.982605,653.244019 862.403442,653.246216 
	C834.534485,653.390747 807.134216,653.474243 779.733948,653.468933 
	C777.997131,653.468567 776.260437,652.777649 774.323486,652.107056 
	C830.516663,651.824158 886.909912,651.837830 943.303223,651.867920 
	C948.458618,651.870667 953.632141,652.248352 958.760193,651.902161 
	C960.753662,651.767639 963.312378,650.607178 964.464600,649.058899 
	C969.118774,642.805176 973.325012,636.218079 978.016602,629.157410 
	C981.656128,623.821594 984.804565,618.945251 988.415405,614.439514 
	C989.317749,613.313599 991.709656,613.381409 993.416931,612.900574 
	C993.819763,614.664917 994.832581,616.571045 994.464172,618.156128 
	C994.045654,619.956604 992.223022,621.382996 991.321472,623.132080 
	C990.384949,624.949219 989.819946,626.957764 988.730957,628.958496 
	C986.353271,631.252502 984.244873,633.398376 982.402283,635.752319 
	C982.052673,636.198853 982.756165,637.469788 982.973755,638.360352 
	C983.957458,638.067688 985.385803,638.086243 985.846924,637.427612 
	C987.714661,634.760010 989.285034,631.884155 991.155151,628.799866 
	C992.647278,626.836182 993.733154,624.898743 995.326416,623.569336 
	C996.413452,622.662354 998.432434,621.953186 999.621826,622.360596 
	C1000.692871,622.727600 1001.362061,624.671997 1001.900452,626.041748 
	C1002.235962,626.895142 1001.999023,627.973511 1001.685913,629.061768 
	C997.906860,633.784851 994.460876,638.396973 990.804382,643.106689 
	C990.621582,643.542847 990.649170,643.881409 990.676880,644.219971 
	C990.776306,643.805542 990.875732,643.391113 991.319214,642.974731 
	C994.377808,639.863464 997.060242,636.725037 999.819092,633.655396 
	C1001.504150,631.780457 1003.429749,629.499390 1006.073853,631.774414 
	C1008.636292,633.979187 1006.967163,636.132874 1005.256836,638.205261 
	C1002.073669,642.062317 999.061646,646.060608 995.978394,650.000122 
	C996.368347,650.360046 996.758362,650.719971 997.148376,651.079956 
	C998.328430,649.915283 999.553467,648.792053 1000.677795,647.575867 
	C1002.254150,645.870422 1003.500977,643.707458 1005.373596,642.479431 
	C1006.756287,641.572632 1008.913086,641.846191 1010.725037,641.593872 
	C1010.672302,643.373657 1011.004395,645.284363 1010.456360,646.895691 
	C1009.931213,648.439697 1008.492493,649.672913 1006.825806,651.874207 
	C1010.101990,651.874207 1012.217346,651.874329 1014.332764,651.874146 
	C1053.257080,651.870850 1092.181274,651.853699 1131.105591,651.870911 
	C1146.071411,651.877563 1161.037109,651.962463 1175.697144,652.296631 
	C1173.251221,652.733398 1171.111084,653.016785 1168.970947,653.017578 
	C1116.737183,653.035645 1064.502808,653.117126 1012.270142,652.871765 
	C1007.072632,652.847412 1003.780396,654.756531 1000.942749,658.490112 
	C995.222351,666.016602 989.624573,673.639099 983.765564,681.055603 
	C982.061829,683.212158 979.931213,685.449158 977.498901,686.533569 
	C970.433777,689.683838 967.051147,695.776367 963.780884,702.102844 
	C956.544373,696.071594 949.307861,690.040283 942.143921,683.342529 
	C944.159973,679.643311 947.261658,676.798401 947.790405,673.536438 
	C948.711060,667.856812 948.188293,661.913208 947.912964,656.097168 
	C947.862793,655.037415 946.112793,653.181824 945.137573,653.175354 
	C932.827393,653.092896 920.515259,653.282349 908.203674,653.402405 
z"/>
<path fill="#F9C29E" opacity="1.000000" stroke="none" 
	d="
M361.968506,1588.001709 
	C383.046509,1589.227295 404.264160,1590.778931 425.836609,1592.552246 
	C424.179230,1596.464355 421.872498,1600.027344 420.213898,1603.870239 
	C416.302185,1612.933716 412.699280,1622.130371 408.465027,1631.657471 
	C388.964844,1631.978638 369.971100,1631.915649 350.977356,1631.852661 
	C354.771606,1619.391113 358.646179,1606.952759 362.273285,1594.442749 
	C362.814178,1592.577271 362.192169,1590.374512 361.968506,1588.001709 
z"/>
<path fill="#D3D3D3" opacity="1.000000" stroke="none" 
	d="
M1640.003540,1420.032227 
	C1718.458252,1420.032349 1796.413696,1420.022827 1874.369263,1420.070679 
	C1877.163086,1420.072388 1880.054321,1420.306274 1882.708862,1421.084839 
	C1884.026978,1421.471436 1885.924438,1423.513306 1885.757812,1424.502686 
	C1885.490356,1426.090332 1883.946533,1427.734375 1882.515015,1428.755737 
	C1881.614136,1429.398560 1879.933716,1428.984009 1878.603027,1428.984131 
	C1794.817505,1428.989624 1711.031860,1428.989624 1627.246338,1428.983521 
	C1625.915527,1428.983398 1624.300171,1429.365967 1623.318115,1428.759521 
	C1621.679688,1427.747681 1620.446289,1426.079712 1619.042480,1424.687988 
	C1620.398682,1423.384766 1621.636230,1421.136475 1623.132690,1420.948364 
	C1628.542847,1420.268433 1634.040039,1420.281006 1640.003540,1420.032227 
z"/>
<path fill="#232928" opacity="1.000000" stroke="none" 
	d="
M350.643616,1632.004883 
	C369.971100,1631.915649 388.964844,1631.978638 408.414062,1632.026855 
	C423.329376,1640.749268 437.789154,1649.486328 452.993652,1658.673340 
	C415.553192,1658.673340 378.915405,1658.673340 341.728333,1658.673340 
	C344.611389,1649.764893 347.460632,1640.960938 350.643616,1632.004883 
z"/>
<path fill="#F9C29E" opacity="1.000000" stroke="none" 
	d="
M620.807129,1582.829102 
	C638.009644,1582.947510 655.209717,1583.508301 672.413696,1583.895874 
	C677.014404,1583.999390 681.627075,1583.574463 686.591309,1583.178711 
	C685.052002,1583.662598 683.169983,1584.880371 681.255920,1584.932983 
	C678.516846,1585.008423 677.227783,1585.490234 676.740662,1588.587769 
	C674.953613,1599.950073 672.781433,1611.251587 670.216309,1622.919678 
	C651.159485,1623.166260 632.640564,1623.069092 614.121643,1622.971924 
	C616.349792,1609.716797 618.578003,1596.461670 620.807129,1582.829102 
z"/>
<path fill="#232928" opacity="1.000000" stroke="none" 
	d="
M613.776794,1623.153564 
	C632.640564,1623.069092 651.159485,1623.166260 670.099121,1623.363159 
	C683.973755,1632.024902 697.427551,1640.586914 711.608337,1649.611572 
	C676.611633,1649.611572 642.368042,1649.611572 607.650818,1649.611572 
	C609.593506,1640.781860 611.512756,1632.058472 613.776794,1623.153564 
z"/>
<path fill="#D3D3D3" opacity="1.000000" stroke="none" 
	d="
M126.000244,1420.032227 
	C186.961273,1420.032349 247.422379,1420.017456 307.883423,1420.077148 
	C310.840302,1420.080078 313.869537,1420.461304 316.719788,1421.215454 
	C317.985229,1421.550293 319.817413,1423.329468 319.736206,1424.316772 
	C319.617920,1425.754395 318.272156,1427.517090 316.950928,1428.308228 
	C315.663269,1429.079468 313.748383,1428.963135 312.108765,1428.963867 
	C244.652176,1428.991699 177.195602,1428.983398 109.739021,1429.005859 
	C106.356544,1429.006958 103.008820,1428.885864 103.080597,1424.376221 
	C103.146835,1420.215088 106.292793,1419.980713 109.510788,1420.017578 
	C114.839981,1420.078613 120.170395,1420.032959 126.000244,1420.032227 
z"/>
<path fill="#F8AD28" opacity="1.000000" stroke="none" 
	d="
M598.493347,776.673218 
	C615.055847,775.067932 630.918762,776.051331 645.949097,782.915955 
	C649.082153,784.346924 651.947632,786.363770 655.252075,788.205566 
	C655.567810,788.300659 655.762268,788.691650 655.909180,789.141357 
	C656.352905,789.730652 656.649658,789.870300 656.946411,790.009949 
	C659.903870,793.455322 662.861267,796.900635 665.869507,800.684082 
	C650.168152,799.682983 634.427002,797.484619 618.660400,797.283264 
	C606.565857,797.128662 594.439941,799.499634 582.326050,800.728333 
	C580.848145,800.878174 579.358276,800.909668 577.438538,800.997437 
	C577.405579,797.569824 577.669678,794.117615 578.237793,790.716187 
	C579.653320,782.241577 584.431763,777.929504 593.852905,777.013550 
	C594.688354,776.967773 594.859497,776.915771 595.030640,776.863831 
	C596.057617,776.819885 597.084595,776.776001 598.493347,776.673218 
z"/>
<path fill="#F7C14D" opacity="1.000000" stroke="none" 
	d="
M785.658936,311.692200 
	C792.875732,298.554504 799.828125,285.695038 807.044250,272.985291 
	C808.164062,271.012909 810.429688,268.562073 812.276184,268.466248 
	C813.941467,268.379852 816.291138,270.903564 817.422729,272.817841 
	C825.200317,285.974182 832.708496,299.289459 840.363831,312.518616 
	C844.022339,318.840881 842.955139,320.980499 835.724915,320.943024 
	C821.279602,320.868164 806.833618,320.728424 792.390808,320.457825 
	C784.753479,320.314758 783.315979,318.399475 785.658936,311.692200 
M813.552795,281.315796 
	C812.621521,281.669739 811.230774,281.750488 810.831970,282.421082 
	C807.782349,287.549316 804.887695,292.771484 802.020752,298.006073 
	C799.443726,302.711212 796.963196,307.469208 794.177307,312.697052 
	C806.967102,312.697052 818.779968,312.697052 831.614563,312.697052 
	C825.418030,301.893616 819.678223,291.886383 813.552795,281.315796 
z"/>
<path fill="#FE4301" opacity="1.000000" stroke="none" 
	d="
M640.285522,1324.440186 
	C645.946289,1327.860596 651.603455,1331.575439 657.041382,1335.587524 
	C663.684875,1340.489014 670.144226,1345.640137 677.555969,1351.356323 
	C675.321594,1351.671021 674.117737,1351.983154 672.912720,1351.987915 
	C663.092590,1352.025879 653.271179,1351.926514 643.452637,1352.056763 
	C640.771240,1352.092407 638.893616,1351.640625 638.388245,1348.318115 
	C638.821411,1340.313477 639.503113,1332.589844 640.285522,1324.440186 
z"/>
<path fill="#F7C14D" opacity="1.000000" stroke="none" 
	d="
M647.921021,265.388397 
	C645.009277,265.212738 642.405518,265.456268 640.136536,264.698059 
	C638.868774,264.274384 637.513245,262.239075 637.400757,260.833679 
	C637.313110,259.738220 638.992920,257.575928 640.042908,257.472839 
	C644.938049,256.992340 649.916870,256.722107 654.798889,257.146240 
	C656.235718,257.271057 657.453308,259.919495 658.771362,261.411346 
	C657.275757,262.572845 655.935181,264.146881 654.242126,264.782776 
	C652.459961,265.452118 650.340820,265.224548 647.921021,265.388397 
z"/>
<path fill="#F7C14D" opacity="1.000000" stroke="none" 
	d="
M404.708252,526.159302 
	C404.871613,529.576111 405.536804,532.635620 405.004822,535.470398 
	C404.665894,537.276611 402.552307,538.749878 401.234436,540.372437 
	C399.904541,538.944763 397.729218,537.681274 397.413757,536.056641 
	C396.666595,532.209106 396.718506,528.192322 396.610168,524.239502 
	C396.535583,521.518494 396.700958,518.581848 400.390472,518.448547 
	C404.321899,518.306519 404.772919,521.158203 404.696381,524.220459 
	C404.683990,524.715576 404.700134,525.211365 404.708252,526.159302 
z"/>
<path fill="#F7C14D" opacity="1.000000" stroke="none" 
	d="
M407.191833,464.051331 
	C406.791565,468.585724 406.798889,472.793427 405.946808,476.819275 
	C405.618866,478.368866 403.335510,479.504578 401.943054,480.828857 
	C400.784943,479.302765 398.688782,477.802032 398.646759,476.245819 
	C398.526703,471.799866 398.943939,467.273132 399.798615,462.905121 
	C400.075958,461.487701 402.357788,460.462463 403.722778,459.257843 
	C404.900665,460.722595 406.078552,462.187347 407.191833,464.051331 
z"/>
<path fill="#F7C14D" opacity="1.000000" stroke="none" 
	d="
M464.760559,337.793488 
	C462.871857,339.913910 461.410950,342.092712 459.392090,343.427734 
	C458.046356,344.317627 455.342102,344.778778 454.282379,344.007568 
	C453.269318,343.270386 452.737244,340.066681 453.488251,339.032776 
	C456.295959,335.167511 459.522400,331.536346 463.038361,328.302979 
	C463.965759,327.450104 467.195709,327.675140 468.095642,328.618866 
	C468.997803,329.564911 468.749115,332.181183 468.188690,333.779205 
	C467.683899,335.218628 466.073730,336.270325 464.760559,337.793488 
z"/>
<path fill="#F7C14D" opacity="1.000000" stroke="none" 
	d="
M745.440186,270.606201 
	C747.396667,275.482910 746.288513,277.445526 741.784851,276.810638 
	C737.229858,276.168518 732.686707,275.030334 728.349609,273.507599 
	C727.057800,273.054016 726.477844,270.572723 725.571655,269.020508 
	C727.153320,268.173065 728.896301,266.401367 730.287720,266.644226 
	C735.303040,267.519470 740.199829,269.073608 745.440186,270.606201 
z"/>
<path fill="#F7C14D" opacity="1.000000" stroke="none" 
	d="
M536.707092,277.983215 
	C538.889160,278.724548 540.735718,279.614655 542.582336,280.504730 
	C541.415466,282.097168 540.572998,284.220062 539.014954,285.172729 
	C535.662231,287.222839 532.051147,289.016571 528.319397,290.202576 
	C526.722290,290.710175 524.559814,289.438782 522.654236,288.975739 
	C523.469177,287.057587 523.755615,284.318726 525.204834,283.385529 
	C528.633179,281.177917 532.614136,279.828400 536.707092,277.983215 
z"/>
<path fill="#F7C14D" opacity="1.000000" stroke="none" 
	d="
M473.302887,320.787842 
	C477.804993,316.135101 482.318237,311.755157 487.076965,307.660492 
	C487.545776,307.257111 490.316742,308.328369 490.615723,309.197784 
	C491.117645,310.657471 491.141571,313.170685 490.221893,314.070129 
	C486.923523,317.295868 483.242950,320.163757 479.514374,322.905121 
	C476.984894,324.764832 474.833405,323.802704 473.302887,320.787842 
z"/>
<path fill="#F7C14D" opacity="1.000000" stroke="none" 
	d="
M570.335327,273.240417 
	C564.778870,275.523407 559.426758,277.629578 553.935730,279.270782 
	C552.912292,279.576691 550.466797,278.237000 550.216370,277.261688 
	C549.871338,275.918060 550.597534,273.176910 551.547913,272.811615 
	C556.451538,270.926819 561.505188,269.280884 566.644226,268.216461 
	C569.768738,267.569336 571.097046,269.772888 570.335327,273.240417 
z"/>
<path fill="#F7C14D" opacity="1.000000" stroke="none" 
	d="
M422.612427,394.625977 
	C421.917328,392.533722 420.780945,390.272125 421.376343,388.643707 
	C422.787292,384.784790 424.726440,381.022522 427.068604,377.649231 
	C427.973297,376.346252 430.545746,376.201202 432.358398,375.528595 
	C432.834717,377.532654 434.183990,379.842621 433.610626,381.478821 
	C432.305878,385.202301 430.332001,388.786987 428.064301,392.032837 
	C427.081696,393.439301 424.702942,393.870361 422.612427,394.625977 
z"/>
<path fill="#F7C14D" opacity="1.000000" stroke="none" 
	d="
M667.238220,260.328430 
	C669.478943,259.358002 671.596008,258.312683 673.718445,258.301788 
	C677.517639,258.282318 681.380798,258.599030 685.088379,259.383850 
	C686.392151,259.659821 688.407898,262.008972 688.172119,262.903748 
	C687.773865,264.414703 685.840515,266.605255 684.552551,266.605286 
	C679.607483,266.605438 674.611633,266.112061 669.755249,265.177216 
	C668.631409,264.960876 667.983765,262.271179 667.238220,260.328430 
z"/>
<path fill="#F7C14D" opacity="1.000000" stroke="none" 
	d="
M422.715149,620.462280 
	C422.080627,622.802612 421.339722,624.749146 420.598755,626.695679 
	C418.784241,625.399963 416.300873,624.483887 415.302429,622.724976 
	C413.535553,619.612183 412.278778,616.063660 411.590546,612.544556 
	C411.229065,610.696045 411.899170,607.514221 413.201721,606.707153 
	C415.923828,605.020569 417.700439,607.413940 418.707458,609.883545 
	C420.079834,613.249146 421.314850,616.670898 422.715149,620.462280 
z"/>
<path fill="#F7C14D" opacity="1.000000" stroke="none" 
	d="
M403.506134,584.593872 
	C402.940430,581.235657 402.850525,577.846924 406.530609,577.688416 
	C407.999756,577.625244 410.205475,580.744324 411.030823,582.828613 
	C412.357880,586.180054 413.211487,589.846924 413.467010,593.437378 
	C413.584290,595.084961 411.807190,596.867432 410.889191,598.588745 
	C409.435883,597.558777 407.271118,596.834290 406.671478,595.437805 
	C405.249481,592.126038 404.569702,588.495544 403.506134,584.593872 
z"/>
<path fill="#F7C14D" opacity="1.000000" stroke="none" 
	d="
M700.505371,261.184723 
	C705.308350,261.836304 709.794617,262.183136 714.051025,263.360901 
	C715.517151,263.766571 716.409912,266.244110 717.564575,267.775269 
	C716.116882,268.789337 714.614685,270.729309 713.231384,270.647949 
	C708.648132,270.378448 704.059021,269.585876 699.583069,268.525848 
	C698.381104,268.241150 696.589417,266.052856 696.805847,265.159302 
	C697.168213,263.663422 698.927246,262.505890 700.505371,261.184723 
z"/>
<path fill="#F7C14D" opacity="1.000000" stroke="none" 
	d="
M441.931946,367.141785 
	C439.907349,367.661682 438.137207,367.913086 436.367065,368.164490 
	C436.206177,366.189697 435.284058,363.837952 436.037781,362.316071 
	C437.781769,358.794403 440.031006,355.389771 442.700836,352.519531 
	C443.919006,351.209869 446.616394,351.276154 448.642853,350.718414 
	C448.750183,352.840973 449.626617,355.342896 448.805511,357.007477 
	C447.069031,360.527863 444.445892,363.610901 441.931946,367.141785 
z"/>
<path fill="#F7C14D" opacity="1.000000" stroke="none" 
	d="
M510.543152,291.269287 
	C512.514648,291.918152 515.204346,292.433838 515.444763,293.501221 
	C515.767273,294.932800 514.632141,297.344299 513.350098,298.356140 
	C510.247833,300.804688 506.844513,303.006805 503.259613,304.645599 
	C501.724243,305.347443 499.435394,304.400909 497.488892,304.203369 
	C498.064789,302.201416 498.015503,299.447906 499.340118,298.346008 
	C502.615082,295.621643 506.519287,293.653687 510.543152,291.269287 
z"/>
<path fill="#F7C14D" opacity="1.000000" stroke="none" 
	d="
M404.801392,435.726532 
	C405.323029,432.191864 406.482452,429.530762 410.279846,430.602356 
	C413.929504,431.632233 412.858734,434.712067 412.386047,437.294189 
	C411.818115,440.396881 411.156433,443.483276 410.489685,446.566864 
	C409.858734,449.485016 408.302948,452.008453 405.110901,450.714508 
	C403.748169,450.162140 402.621613,447.175293 402.694580,445.346863 
	C402.818329,442.246704 403.978546,439.187897 404.801392,435.726532 
z"/>
<path fill="#F7C14D" opacity="1.000000" stroke="none" 
	d="
M411.027039,413.876465 
	C412.047150,411.021545 412.921051,408.519684 413.878510,406.050232 
	C414.817352,403.628815 415.954346,401.256378 419.230988,402.277405 
	C422.690063,403.355286 421.919800,405.981506 421.105652,408.407257 
	C419.944824,411.865753 418.476105,415.227356 417.442871,418.720245 
	C416.592407,421.595032 414.710083,423.559998 412.156647,422.196716 
	C410.798279,421.471558 410.716705,418.227112 410.233521,416.080475 
	C410.113342,415.546600 410.671204,414.860077 411.027039,413.876465 
z"/>
<path fill="#F7C14D" opacity="1.000000" stroke="none" 
	d="
M582.185486,271.431091 
	C580.651489,270.312561 578.543335,269.123627 578.575439,267.995758 
	C578.614197,266.638000 580.238647,264.549377 581.585449,264.147614 
	C585.979370,262.836792 590.530701,261.855865 595.086182,261.409698 
	C596.377075,261.283264 598.842407,263.277252 599.030701,264.554932 
	C599.217041,265.819061 597.466003,268.296021 596.113586,268.689240 
	C591.706604,269.970581 587.093323,270.542755 582.185486,271.431091 
z"/>
<path fill="#F7C14D" opacity="1.000000" stroke="none" 
	d="
M399.911621,549.226990 
	C403.576263,547.437866 405.628326,548.305054 406.092224,552.184753 
	C406.625031,556.640625 407.471741,561.078430 407.648071,565.545105 
	C407.697510,566.797607 405.970367,569.052246 404.871094,569.175232 
	C403.580475,569.319641 400.996307,567.781372 400.861450,566.730469 
	C400.130676,561.036560 399.983704,555.267700 399.911621,549.226990 
z"/>
<path fill="#F7C14D" opacity="1.000000" stroke="none" 
	d="
M761.101196,282.707458 
	C759.800171,282.287842 758.885254,281.897675 757.937561,281.618683 
	C755.107727,280.785645 753.213745,278.718170 754.771179,276.199310 
	C755.613281,274.837311 758.755371,274.760284 760.909851,274.414032 
	C761.775574,274.274872 763.009155,274.716705 763.668335,275.330872 
	C765.413452,276.957001 768.468262,279.049561 768.245483,280.546265 
	C767.691162,284.270599 764.310669,283.601746 761.101196,282.707458 
z"/>
<path fill="#F7C14D" opacity="1.000000" stroke="none" 
	d="
M431.446960,646.750549 
	C426.642487,646.508789 421.572937,639.926758 423.239594,636.137695 
	C423.782288,634.903992 426.422485,633.590271 427.742157,633.892151 
	C431.453308,634.741089 433.910522,643.192505 431.446960,646.750549 
z"/>
<path fill="#FFBE37" opacity="1.000000" stroke="none" 
	d="
M397.237579,497.026337 
	C397.278839,495.703918 397.320099,494.381470 397.710327,492.531494 
	C402.130951,489.446686 403.844482,490.176422 403.889252,494.802765 
	C403.921112,498.093018 403.623840,501.428741 403.033844,504.664001 
	C402.761200,506.158936 401.438660,507.462402 400.592133,508.852661 
	C399.705200,507.514709 398.372925,506.280914 398.030396,504.815674 
	C397.441193,502.295197 397.468842,499.630493 397.237579,497.026337 
z"/>
<path fill="#FFBE37" opacity="1.000000" stroke="none" 
	d="
M608.954102,260.980072 
	C609.288147,260.894318 609.564880,260.718353 610.341125,260.291687 
	C612.931458,259.723236 614.964905,259.315277 616.998352,258.907288 
	C617.756287,258.932098 618.514160,258.956940 620.071777,259.057678 
	C621.858948,259.146759 622.945679,258.901001 623.810913,259.232788 
	C625.165161,259.752136 626.369690,260.662048 627.637634,261.406555 
	C626.763916,262.526703 625.890137,263.646851 625.016357,264.767029 
	C624.304321,264.908295 623.592346,265.049591 622.054199,265.120361 
	C618.623535,265.077850 616.015015,265.026215 613.415466,265.154785 
	C610.412842,265.303253 608.688782,264.246094 608.954102,260.980072 
z"/>
<path fill="#FAC59B" opacity="1.000000" stroke="none" 
	d="
M396.937897,497.303223 
	C397.468842,499.630493 397.441193,502.295197 398.030396,504.815674 
	C398.372925,506.280914 399.705200,507.514709 400.592133,508.852661 
	C401.438660,507.462402 402.761200,506.158936 403.033844,504.664001 
	C403.623840,501.428741 403.921112,498.093018 403.889252,494.802765 
	C403.844482,490.176422 402.130951,489.446686 397.768707,492.140076 
	C398.381714,490.905914 399.489868,488.297150 400.149078,488.406067 
	C401.872955,488.690796 404.691437,490.054474 404.786621,491.181183 
	C405.238342,496.529297 405.228027,501.973267 404.673737,507.309509 
	C404.535706,508.638428 401.809662,510.512085 400.185516,510.605103 
	C398.976288,510.674377 396.761292,508.418091 396.518646,506.946228 
	C396.018646,503.913177 396.538147,500.712097 396.937897,497.303223 
z"/>
<path fill="#FAC59B" opacity="1.000000" stroke="none" 
	d="
M608.595825,261.041565 
	C608.688782,264.246094 610.412842,265.303253 613.415466,265.154785 
	C616.015015,265.026215 618.623535,265.077850 621.691101,265.158630 
	C618.148682,266.067047 614.087402,267.672882 610.156128,267.400879 
	C607.227173,267.198212 605.755310,264.192902 608.595825,261.041565 
z"/>
<path fill="#FAC59B" opacity="1.000000" stroke="none" 
	d="
M625.191345,265.055328 
	C625.890137,263.646851 626.763916,262.526703 627.637634,261.406555 
	C626.369690,260.662048 625.165161,259.752136 623.810913,259.232788 
	C622.945679,258.901001 621.858948,259.146759 620.451111,259.070251 
	C622.301758,258.582153 624.701050,257.540100 626.793457,257.975006 
	C627.960693,258.217590 629.319092,260.945404 629.253174,262.496399 
	C629.210632,263.498718 626.745667,264.398132 625.191345,265.055328 
z"/>
<path fill="#FAC59B" opacity="1.000000" stroke="none" 
	d="
M616.696899,258.693298 
	C614.964905,259.315277 612.931458,259.723236 610.497192,260.097168 
	C612.195984,259.535217 614.295715,259.007263 616.696899,258.693298 
z"/>
<path fill="#F9C29E" opacity="1.000000" stroke="none" 
	d="
M613.290527,1582.268555 
	C614.787109,1582.012451 616.510193,1582.035034 618.642334,1582.202637 
	C617.206543,1582.414307 615.361816,1582.480835 613.290527,1582.268555 
z"/>
<path fill="#F8AD28" opacity="1.000000" stroke="none" 
	d="
M525.724365,824.134766 
	C525.507690,824.690491 524.985535,825.281372 524.132812,825.864136 
	C524.341125,825.294006 524.880005,824.731934 525.724365,824.134766 
z"/>
<path fill="#F9C29E" opacity="1.000000" stroke="none" 
	d="
M355.197205,1587.293457 
	C355.765869,1587.056152 356.541107,1587.024658 357.680908,1587.137695 
	C357.164886,1587.354614 356.284332,1587.426880 355.197205,1587.293457 
z"/>
<path fill="#F9C29E" opacity="1.000000" stroke="none" 
	d="
M612.743896,1574.195312 
	C612.986511,1574.764160 613.020935,1575.538452 612.913208,1576.677368 
	C612.692566,1576.161499 612.614136,1575.281128 612.743896,1574.195312 
z"/>
<path fill="#F8AD28" opacity="1.000000" stroke="none" 
	d="
M527.701050,822.951416 
	C527.553284,823.263245 527.112183,823.592651 526.391479,823.979309 
	C526.543762,823.680725 526.975708,823.324890 527.701050,822.951416 
z"/>
<path fill="#F9C29E" opacity="1.000000" stroke="none" 
	d="
M612.204651,1581.041260 
	C612.589233,1580.911987 612.782959,1581.151611 612.914307,1581.716187 
	C612.688782,1581.736938 612.409363,1581.526611 612.204651,1581.041260 
z"/>
<path fill="#F8AD28" opacity="1.000000" stroke="none" 
	d="
M528.762451,822.162964 
	C528.834229,822.377686 528.616333,822.598999 528.143188,822.882324 
	C528.004089,822.637146 528.199097,822.378906 528.762451,822.162964 
z"/>
<path fill="#F9C29E" opacity="1.000000" stroke="none" 
	d="
M656.845947,789.790955 
	C656.649658,789.870300 656.352905,789.730652 655.995483,789.341919 
	C656.274658,789.134766 656.544922,789.294495 656.845947,789.790955 
z"/>
<path fill="#F9C29E" opacity="1.000000" stroke="none" 
	d="
M594.925354,776.725708 
	C594.859497,776.915771 594.688354,776.967773 594.253418,776.973022 
	C594.266418,776.813354 594.543213,776.700439 594.925354,776.725708 
z"/>
<path fill="#FFFFFF" opacity="1.000000" stroke="none" 
	d="
M1002.019043,628.950928 
	C1001.999023,627.973511 1002.235962,626.895142 1001.900452,626.041748 
	C1001.362061,624.671997 1000.692871,622.727600 999.621826,622.360596 
	C998.432434,621.953186 996.413452,622.662354 995.326416,623.569336 
	C993.733154,624.898743 992.647278,626.836182 990.844788,628.755066 
	C989.927063,628.957886 989.509705,628.920227 989.092407,628.882568 
	C989.819946,626.957764 990.384949,624.949219 991.321472,623.132080 
	C992.223022,621.382996 994.045654,619.956604 994.464172,618.156128 
	C994.832581,616.571045 993.819763,614.664917 993.416931,612.900574 
	C991.709656,613.381409 989.317749,613.313599 988.415405,614.439514 
	C984.804565,618.945251 981.656128,623.821594 978.148071,628.849487 
	C955.260254,629.073914 932.560974,629.009644 909.387207,628.867310 
	C908.634399,626.671692 908.125305,624.555176 908.115845,622.436340 
	C908.061279,610.284912 908.125427,598.132996 908.559692,585.490662 
	C912.409485,584.999268 915.848938,584.997681 919.288330,584.997681 
	C977.906311,584.997498 1036.524292,584.993042 1095.142334,584.998413 
	C1210.712891,585.009033 1326.283325,585.025146 1441.853882,585.038879 
	C1441.890015,587.371155 1441.957520,589.703430 1441.957642,592.035706 
	C1441.962402,852.190674 1441.963867,1112.345703 1441.954346,1372.500610 
	C1441.953979,1380.856812 1442.805908,1380.028809 1434.492798,1380.029297 
	C1261.500610,1380.039673 1088.508301,1380.040039 915.516113,1380.028442 
	C907.239502,1380.027832 908.087097,1380.872314 908.086548,1372.468628 
	C908.075439,1188.476929 908.078003,1004.485168 908.077026,820.493408 
	C908.076965,812.918335 908.066895,805.343201 908.019958,797.327759 
	C915.322693,785.034912 922.585083,773.130676 930.030884,761.342407 
	C940.415833,744.900696 950.937988,728.545715 961.824829,711.869995 
	C962.537903,711.384399 962.579346,711.140076 962.372559,710.853455 
	C962.565369,710.471680 962.758240,710.089844 963.298340,709.271362 
	C963.859924,708.359131 964.074219,707.883606 964.288574,707.408020 
	C964.288574,707.408020 964.387207,707.302734 964.602844,707.115967 
	C965.035522,706.693298 965.108765,706.419006 965.038208,706.106323 
	C965.055054,705.922729 965.071838,705.739136 965.344604,705.205505 
	C965.857178,704.539124 966.113586,704.222839 966.369995,703.906555 
	C965.875488,703.664795 965.380920,703.423035 964.886414,703.181213 
	C964.638245,702.944763 964.390137,702.708313 963.961426,702.287354 
	C967.051147,695.776367 970.433777,689.683838 977.498901,686.533569 
	C979.931213,685.449158 982.061829,683.212158 983.765564,681.055603 
	C989.624573,673.639099 995.222351,666.016602 1000.942749,658.490112 
	C1003.780396,654.756531 1007.072632,652.847412 1012.270142,652.871765 
	C1064.502808,653.117126 1116.737183,653.035645 1168.970947,653.017578 
	C1171.111084,653.016785 1173.251221,652.733398 1176.027954,652.182007 
	C1178.695679,650.148438 1181.350464,648.901855 1182.648560,646.812439 
	C1187.893188,638.371399 1181.810547,628.978088 1171.297485,628.974792 
	C1114.871338,628.957153 1058.445190,628.957031 1002.019043,628.950928 
M1122.476685,1053.834595 
	C1129.295898,1039.176392 1132.469604,1023.957520 1131.106079,1007.648438 
	C1128.889526,981.136475 1116.772827,960.288513 1095.549805,944.913757 
	C1077.193237,931.615601 1056.415039,926.728760 1033.805054,929.930847 
	C1006.586975,933.785461 985.967468,947.777710 971.683655,970.906799 
	C962.578430,985.650452 959.026306,1001.985229 959.921265,1019.415894 
	C960.967468,1039.791748 968.143921,1057.476440 981.939087,1072.397949 
	C996.505066,1088.153076 1014.097107,1097.894653 1035.828735,1100.319458 
	C1051.674561,1102.087646 1066.639526,1099.607910 1080.970093,1093.397705 
	C1099.280640,1085.462891 1112.746826,1072.061768 1122.476685,1053.834595 
M1380.969238,1233.500000 
	C1380.968872,1221.837402 1381.176025,1210.169800 1380.901489,1198.513672 
	C1380.689209,1189.505615 1378.622559,1181.028931 1371.273560,1174.803833 
	C1364.624146,1169.171387 1356.533569,1168.089722 1348.350342,1168.084229 
	C1230.058838,1168.004517 1111.767456,1168.029785 993.475952,1168.030151 
	C992.809509,1168.030151 992.142578,1168.015381 991.476746,1168.036865 
	C972.565247,1168.645996 962.621887,1183.211304 962.820679,1197.323242 
	C963.320557,1232.803589 963.338623,1268.300903 962.830688,1303.781128 
	C962.591553,1320.483276 976.499512,1332.053345 991.183899,1332.033813 
	C1067.656616,1331.932007 1144.129761,1331.989136 1220.602661,1331.990234 
	C1264.253906,1331.990845 1307.905151,1332.001709 1351.556396,1331.983521 
	C1364.974731,1331.977905 1374.374512,1326.066162 1378.940796,1313.648315 
	C1380.659546,1308.974731 1380.837036,1303.560791 1380.884644,1298.476685 
	C1381.084595,1277.152710 1380.969116,1255.825806 1380.969238,1233.500000 
M1389.524048,709.757690 
	C1392.695923,700.415771 1389.422852,694.644470 1379.760254,692.781311 
	C1377.335693,692.313782 1374.829712,692.059814 1372.360962,692.059082 
	C1258.704712,692.024536 1145.048462,692.028076 1031.392212,692.037537 
	C1029.564331,692.037720 1027.699463,691.954407 1025.915283,692.269348 
	C1018.865051,693.513489 1015.214844,697.012146 1014.991760,702.510498 
	C1014.616455,711.759827 1018.891541,715.987305 1028.683105,715.987671 
	C1144.339111,715.992065 1259.995239,715.990540 1375.651245,715.990173 
	C1376.817749,715.990173 1377.995117,716.084473 1379.148926,715.961670 
	C1383.243042,715.525818 1387.020020,714.466370 1389.524048,709.757690 
M1281.468994,849.014771 
	C1283.968872,849.013611 1286.469360,849.052002 1288.968384,849.003601 
	C1295.489258,848.877319 1299.892456,844.481567 1300.004639,838.032837 
	C1300.138062,830.358582 1295.418335,826.005310 1286.844482,826.004211 
	C1207.182617,825.994141 1127.520752,825.997803 1047.858887,825.997803 
	C1042.692505,825.997803 1037.517944,825.820374 1032.362305,826.056396 
	C1027.588989,826.274902 1023.645447,828.211426 1021.856750,833.044128 
	C1018.716431,841.528931 1023.917114,849.001953 1032.993652,849.003662 
	C1115.488647,849.019531 1197.983765,849.014038 1281.468994,849.014771 
M1171.029297,1011.500000 
	C1171.029419,1039.158569 1171.036377,1066.817139 1171.027344,1094.475708 
	C1171.021362,1112.950684 1184.229370,1123.413818 1199.560181,1123.235596 
	C1250.705078,1122.641235 1301.865845,1122.627563 1353.009644,1123.266113 
	C1367.129395,1123.442383 1380.153442,1110.534302 1380.089600,1096.059814 
	C1379.849243,1041.576660 1380.000366,987.091980 1379.987793,932.607910 
	C1379.984131,917.014343 1368.263184,905.084290 1352.599731,905.060303 
	C1301.947998,904.982788 1251.295654,904.951538 1200.644287,905.095947 
	C1190.060669,905.126160 1180.195923,908.017822 1175.116211,918.311035 
	C1172.705078,923.197144 1171.292480,929.070679 1171.206299,934.524963 
	C1170.806274,959.844543 1171.029297,985.174072 1171.029297,1011.500000 
M1025.500000,761.061523 
	C1011.672180,761.060974 997.843994,761.004150 984.016602,761.081238 
	C975.921021,761.126404 971.051208,766.764954 972.003967,774.730469 
	C972.656311,780.185608 977.795044,784.445740 984.469299,784.807861 
	C988.123962,785.006104 991.797791,784.855164 995.462952,784.855225 
	C1044.276978,784.856079 1093.090942,784.844788 1141.904907,784.873291 
	C1146.761719,784.876160 1151.280273,784.061035 1154.405273,779.972046 
	C1157.543457,775.865784 1157.692749,771.398743 1155.304688,766.832886 
	C1152.772827,761.991943 1148.298828,761.076233 1143.453613,761.073669 
	C1104.469116,761.053162 1065.484497,761.061890 1025.500000,761.061523 
M1195.409302,764.978088 
	C1191.862793,768.838196 1191.402588,773.179932 1193.460938,777.871887 
	C1195.919312,783.475464 1200.928711,784.789917 1206.251465,784.803284 
	C1245.060181,784.900696 1283.869385,784.905884 1322.678101,784.817322 
	C1330.645996,784.799194 1336.014648,779.746887 1335.987915,772.924255 
	C1335.958984,765.514526 1330.928101,761.079041 1322.369141,761.074158 
	C1283.227051,761.051697 1244.084595,760.988525 1204.943726,761.207031 
	C1201.940186,761.223816 1198.948364,763.312988 1195.409302,764.978088 
M1346.513672,849.014771 
	C1356.179565,849.014404 1365.845581,849.046021 1375.511353,849.002258 
	C1381.913330,848.973267 1386.510742,844.637756 1386.991577,838.308838 
	C1387.455078,832.206787 1383.172363,826.325378 1377.048828,826.165405 
	C1363.228027,825.804321 1349.379883,825.753784 1335.565186,826.228821 
	C1329.072754,826.452026 1325.557129,831.924316 1325.996582,839.031494 
	C1326.347778,844.711975 1330.946655,848.895508 1337.022095,849.004883 
	C1339.854370,849.055908 1342.688110,849.014404 1346.513672,849.014771 
z"/>
<path fill="#F6F6F6" opacity="1.000000" stroke="none" 
	d="
M1441.897949,584.567993 
	C1326.283325,585.025146 1210.712891,585.009033 1095.142334,584.998413 
	C1036.524292,584.993042 977.906311,584.997498 919.288330,584.997681 
	C915.848938,584.997681 912.409485,584.999268 908.605957,585.028076 
	C908.178650,556.063843 908.132446,527.071533 908.027527,498.079468 
	C908.016479,495.022186 909.445496,493.883423 912.321594,494.020538 
	C913.817810,494.091919 915.320557,494.022827 916.820312,494.022827 
	C1089.296387,494.022308 1261.772583,494.022217 1434.248657,494.022675 
	C1441.972290,494.022675 1441.977173,494.025208 1441.974731,501.608887 
	C1441.965698,529.104980 1441.953125,556.601013 1441.897949,584.567993 
M965.613831,544.960571 
	C968.548767,539.180908 969.097961,533.535400 964.422119,528.340942 
	C960.804932,524.322632 954.916077,523.025269 949.839050,524.960999 
	C944.712891,526.915466 941.438232,531.396545 941.264526,536.694031 
	C941.094116,541.893311 944.635803,547.667480 949.103760,549.474426 
	C955.372253,552.009583 960.111572,550.867737 965.613831,544.960571 
M989.573242,525.837708 
	C983.243408,530.548340 981.299377,536.531311 984.091858,542.707458 
	C986.646606,548.357849 993.045227,551.645508 998.865173,550.297913 
	C1006.772583,548.466919 1011.128784,540.752441 1008.657532,532.956299 
	C1006.375244,525.756226 998.355347,522.492065 989.573242,525.837708 
M1049.835327,532.022034 
	C1048.218994,530.178284 1046.810669,528.083862 1044.947021,526.538330 
	C1039.595703,522.100342 1031.256958,523.740112 1027.051147,529.859253 
	C1022.878723,535.929871 1024.234863,544.394714 1029.951782,547.964722 
	C1034.461060,550.780640 1041.465454,550.922729 1045.114014,548.272156 
	C1049.969482,544.744934 1051.623291,539.483704 1049.835327,532.022034 
z"/>
<path fill="#909090" opacity="1.000000" stroke="none" 
	d="
M1166.849243,1522.098267 
	C1140.912842,1524.059937 1119.679810,1505.761841 1115.566162,1482.796021 
	C1110.149414,1452.555054 1131.011353,1428.056885 1158.059204,1424.861816 
	C1185.316162,1421.642090 1209.965454,1441.481689 1212.465576,1469.038086 
	C1214.932495,1496.229370 1194.631836,1520.417480 1166.849243,1522.098267 
z"/>
<path fill="#909090" opacity="1.000000" stroke="none" 
	d="
M1159.000000,448.925415 
	C1147.850464,448.924316 1137.200317,448.867767 1126.551514,448.951263 
	C1122.623901,448.982086 1119.480469,448.067383 1119.066772,443.567932 
	C1118.722900,439.829346 1121.320190,438.008087 1126.696899,438.006165 
	C1162.639282,437.993134 1198.581665,438.012054 1234.524048,437.974304 
	C1238.369507,437.970245 1241.666870,438.550842 1241.953247,443.272858 
	C1242.189453,447.166901 1239.815552,448.914032 1234.380005,448.917999 
	C1209.420044,448.936157 1184.459961,448.925659 1159.000000,448.925415 
z"/>
<path fill="#909090" opacity="1.000000" stroke="none" 
	d="
M1098.933838,450.758698 
	C1093.160889,449.215240 1090.104004,446.240540 1091.448242,442.557465 
	C1092.369629,440.033142 1095.144653,436.911804 1097.483765,436.542145 
	C1099.756836,436.182953 1103.184326,438.448730 1104.922241,440.543152 
	C1107.205200,443.294403 1105.858521,446.585602 1103.275024,448.881317 
	C1102.228271,449.811462 1100.649902,450.143219 1098.933838,450.758698 
z"/>
<path fill="#FFFFFF" opacity="1.000000" stroke="none" 
	d="
M908.161255,653.832214 
	C920.515259,653.282349 932.827393,653.092896 945.137573,653.175354 
	C946.112793,653.181824 947.862793,655.037415 947.912964,656.097168 
	C948.188293,661.913208 948.711060,667.856812 947.790405,673.536438 
	C947.261658,676.798401 944.159973,679.643311 942.096924,683.021240 
	C940.499817,682.660156 939.022339,681.953796 937.298340,681.129517 
	C927.784302,690.079712 918.265442,699.034485 908.421997,708.082031 
	C908.104675,690.203918 908.111816,672.232971 908.161255,653.832214 
z"/>
<path fill="#FAC59B" opacity="1.000000" stroke="none" 
	d="
M964.864136,703.489624 
	C965.380920,703.423035 965.875488,703.664795 966.369995,703.906555 
	C966.113586,704.222839 965.857178,704.539124 965.342834,704.928955 
	C965.003906,704.601013 964.922913,704.199524 964.864136,703.489624 
z"/>
<path fill="#FAC59B" opacity="1.000000" stroke="none" 
	d="
M963.993042,707.455566 
	C964.074219,707.883606 963.859924,708.359131 963.417847,708.973511 
	C963.359314,708.575867 963.528442,708.039490 963.993042,707.455566 
z"/>
<path fill="#FAC59B" opacity="1.000000" stroke="none" 
	d="
M962.240479,710.943542 
	C962.579346,711.140076 962.537903,711.384399 962.038513,711.592651 
	C961.854797,711.377197 961.947998,711.188782 962.240479,710.943542 
z"/>
<path fill="#FAC59B" opacity="1.000000" stroke="none" 
	d="
M964.831421,706.212769 
	C965.108765,706.419006 965.035522,706.693298 964.639526,707.053955 
	C964.308105,706.852478 964.362793,706.566040 964.831421,706.212769 
z"/>
<path fill="#FC9007" opacity="1.000000" stroke="none" 
	d="
M1001.685913,629.061768 
	C1058.445190,628.957031 1114.871338,628.957153 1171.297485,628.974792 
	C1181.810547,628.978088 1187.893188,638.371399 1182.648560,646.812439 
	C1181.350464,648.901855 1178.695679,650.148438 1176.333740,651.897034 
	C1161.037109,651.962463 1146.071411,651.877563 1131.105591,651.870911 
	C1092.181274,651.853699 1053.257080,651.870850 1014.332764,651.874146 
	C1012.217346,651.874329 1010.101990,651.874207 1006.825806,651.874207 
	C1008.492493,649.672913 1009.931213,648.439697 1010.456360,646.895691 
	C1011.004395,645.284363 1010.672302,643.373657 1010.725037,641.593872 
	C1008.913086,641.846191 1006.756287,641.572632 1005.373596,642.479431 
	C1003.500977,643.707458 1002.254150,645.870422 1000.677795,647.575867 
	C999.553467,648.792053 998.328430,649.915283 997.148376,651.079956 
	C996.758362,650.719971 996.368347,650.360046 995.978394,650.000122 
	C999.061646,646.060608 1002.073669,642.062317 1005.256836,638.205261 
	C1006.967163,636.132874 1008.636292,633.979187 1006.073853,631.774414 
	C1003.429749,629.499390 1001.504150,631.780457 999.819092,633.655396 
	C997.060242,636.725037 994.377808,639.863464 991.328857,642.983887 
	C990.994446,642.994873 991.014832,643.009094 991.014832,643.009094 
	C994.460876,638.396973 997.906860,633.784851 1001.685913,629.061768 
z"/>
<path fill="#F8AD28" opacity="1.000000" stroke="none" 
	d="
M988.730896,628.958496 
	C989.509705,628.920227 989.927063,628.957886 990.654724,629.040344 
	C989.285034,631.884155 987.714661,634.760010 985.846924,637.427612 
	C985.385803,638.086243 983.957458,638.067688 982.973755,638.360352 
	C982.756165,637.469788 982.052673,636.198853 982.402283,635.752319 
	C984.244873,633.398376 986.353271,631.252502 988.730896,628.958496 
z"/>
<path fill="#FC9007" opacity="1.000000" stroke="none" 
	d="
M990.984802,642.985718 
	C990.875732,643.391113 990.776306,643.805542 990.676880,644.219971 
	C990.649170,643.881409 990.621582,643.542847 990.804382,643.106689 
	C991.014832,643.009094 990.994446,642.994873 990.984802,642.985718 
z"/>
<path fill="#ECECEC" opacity="1.000000" stroke="none" 
	d="
M813.745605,281.597473 
	C819.678223,291.886383 825.418030,301.893616 831.614563,312.697052 
	C818.779968,312.697052 806.967102,312.697052 794.177307,312.697052 
	C796.963196,307.469208 799.443726,302.711212 802.020752,298.006073 
	C804.887695,292.771484 807.782349,287.549316 810.831970,282.421082 
	C811.230774,281.750488 812.621521,281.669739 813.745605,281.597473 
z"/>
<path fill="#ECECEC" opacity="1.000000" stroke="none" 
	d="
M1122.260498,1054.138428 
	C1112.746826,1072.061768 1099.280640,1085.462891 1080.970093,1093.397705 
	C1066.639526,1099.607910 1051.674561,1102.087646 1035.828735,1100.319458 
	C1014.097107,1097.894653 996.505066,1088.153076 981.939087,1072.397949 
	C968.143921,1057.476440 960.967468,1039.791748 959.921265,1019.415894 
	C959.026306,1001.985229 962.578430,985.650452 971.683655,970.906799 
	C985.967468,947.777710 1006.586975,933.785461 1033.805054,929.930847 
	C1056.415039,926.728760 1077.193237,931.615601 1095.549805,944.913757 
	C1116.772827,960.288513 1128.889526,981.136475 1131.106079,1007.648438 
	C1132.469604,1023.957520 1129.295898,1039.176392 1122.260498,1054.138428 
M1005.576416,1055.195923 
	C1005.997559,1057.419189 1005.621155,1060.526611 1006.959045,1061.733643 
	C1028.037354,1080.749390 1065.329590,1080.248901 1085.581055,1060.799316 
	C1086.620483,1059.801147 1087.359863,1057.582764 1087.035400,1056.218872 
	C1084.830811,1046.950317 1079.705933,1039.639160 1071.674561,1034.356689 
	C1060.759277,1027.177490 1048.642334,1027.455933 1036.501587,1028.882935 
	C1020.894531,1030.717285 1010.930054,1039.760864 1005.576416,1055.195923 
M1064.838989,1011.083191 
	C1065.596680,1007.391968 1066.919067,1003.713074 1067.000488,1000.006958 
	C1067.201416,990.868591 1060.934326,983.072876 1052.063599,980.592957 
	C1042.995605,978.057800 1033.107910,981.875366 1028.195068,989.808838 
	C1023.459534,997.456055 1024.376465,1007.669739 1030.030029,1014.456665 
	C1039.624390,1025.974121 1057.668579,1023.702576 1064.838989,1011.083191 
z"/>
<path fill="#E4E4E4" opacity="1.000000" stroke="none" 
	d="
M1380.969116,1234.000000 
	C1380.969116,1255.825806 1381.084595,1277.152710 1380.884644,1298.476685 
	C1380.837036,1303.560791 1380.659546,1308.974731 1378.940796,1313.648315 
	C1374.374512,1326.066162 1364.974731,1331.977905 1351.556396,1331.983521 
	C1307.905151,1332.001709 1264.253906,1331.990845 1220.602661,1331.990234 
	C1144.129761,1331.989136 1067.656616,1331.932007 991.183899,1332.033813 
	C976.499512,1332.053345 962.591553,1320.483276 962.830688,1303.781128 
	C963.338623,1268.300903 963.320557,1232.803589 962.820679,1197.323242 
	C962.621887,1183.211304 972.565247,1168.645996 991.476746,1168.036865 
	C992.142578,1168.015381 992.809509,1168.030151 993.475952,1168.030151 
	C1111.767456,1168.029785 1230.058838,1168.004517 1348.350342,1168.084229 
	C1356.533569,1168.089722 1364.624146,1169.171387 1371.273560,1174.803833 
	C1378.622559,1181.028931 1380.689209,1189.505615 1380.901489,1198.513672 
	C1381.176025,1210.169800 1380.968872,1221.837402 1380.969116,1234.000000 
M1117.500000,1323.019531 
	C1195.634766,1323.018311 1273.769653,1323.023438 1351.904419,1323.010010 
	C1364.794067,1323.007812 1371.990967,1315.795532 1371.993164,1302.958496 
	C1371.998901,1267.639648 1371.676758,1232.316040 1372.200806,1197.005005 
	C1372.346558,1187.185547 1363.333374,1176.861084 1352.057739,1176.879395 
	C1231.440918,1177.074829 1110.823486,1176.996704 990.206238,1177.009888 
	C979.976135,1177.010986 971.122742,1185.290161 971.081848,1195.454956 
	C970.937134,1231.439575 970.948242,1267.425537 971.057678,1303.410400 
	C971.091675,1314.578125 980.047913,1323.203735 991.052246,1323.127319 
	C1032.866333,1322.836670 1074.683838,1323.015869 1117.500000,1323.019531 
z"/>
<path fill="#E4E4E4" opacity="1.000000" stroke="none" 
	d="
M1389.303223,710.071655 
	C1387.020020,714.466370 1383.243042,715.525818 1379.148926,715.961670 
	C1377.995117,716.084473 1376.817749,715.990173 1375.651245,715.990173 
	C1259.995239,715.990540 1144.339111,715.992065 1028.683105,715.987671 
	C1018.891541,715.987305 1014.616455,711.759827 1014.991760,702.510498 
	C1015.214844,697.012146 1018.865051,693.513489 1025.915283,692.269348 
	C1027.699463,691.954407 1029.564331,692.037720 1031.392212,692.037537 
	C1145.048462,692.028076 1258.704712,692.024536 1372.360962,692.059082 
	C1374.829712,692.059814 1377.335693,692.313782 1379.760254,692.781311 
	C1389.422852,694.644470 1392.695923,700.415771 1389.303223,710.071655 
z"/>
<path fill="#E4E4E4" opacity="1.000000" stroke="none" 
	d="
M1280.973877,849.014771 
	C1197.983765,849.014038 1115.488647,849.019531 1032.993652,849.003662 
	C1023.917114,849.001953 1018.716431,841.528931 1021.856750,833.044128 
	C1023.645447,828.211426 1027.588989,826.274902 1032.362305,826.056396 
	C1037.517944,825.820374 1042.692505,825.997803 1047.858887,825.997803 
	C1127.520752,825.997803 1207.182617,825.994141 1286.844482,826.004211 
	C1295.418335,826.005310 1300.138062,830.358582 1300.004639,838.032837 
	C1299.892456,844.481567 1295.489258,848.877319 1288.968384,849.003601 
	C1286.469360,849.052002 1283.968872,849.013611 1280.973877,849.014771 
z"/>
<path fill="#E4E4E4" opacity="1.000000" stroke="none" 
	d="
M1171.029297,1011.000000 
	C1171.029297,985.174072 1170.806274,959.844543 1171.206299,934.524963 
	C1171.292480,929.070679 1172.705078,923.197144 1175.116211,918.311035 
	C1180.195923,908.017822 1190.060669,905.126160 1200.644287,905.095947 
	C1251.295654,904.951538 1301.947998,904.982788 1352.599731,905.060303 
	C1368.263184,905.084290 1379.984131,917.014343 1379.987793,932.607910 
	C1380.000366,987.091980 1379.849243,1041.576660 1380.089600,1096.059814 
	C1380.153442,1110.534302 1367.129395,1123.442383 1353.009644,1123.266113 
	C1301.865845,1122.627563 1250.705078,1122.641235 1199.560181,1123.235596 
	C1184.229370,1123.413818 1171.021362,1112.950684 1171.027344,1094.475708 
	C1171.036377,1066.817139 1171.029419,1039.158569 1171.029297,1011.000000 
M1283.500000,912.968872 
	C1255.167969,912.968506 1226.822876,913.463013 1198.510620,912.713684 
	C1187.834229,912.431152 1178.653564,922.350708 1178.740356,932.305603 
	C1179.216553,986.965393 1179.204102,1041.633423 1178.784668,1096.294189 
	C1178.691528,1108.436279 1188.569214,1116.186279 1198.858765,1116.132324 
	C1250.188232,1115.863281 1301.521118,1115.813232 1352.849365,1116.174072 
	C1362.872437,1116.244507 1373.573486,1107.106445 1373.031494,1095.937500 
	C1372.765259,1090.450684 1372.985962,1084.940186 1372.985840,1079.440430 
	C1372.985840,1030.609497 1372.876587,981.778198 1373.074951,932.948059 
	C1373.115967,922.830750 1363.814819,912.415283 1353.489380,912.743652 
	C1330.513672,913.474243 1307.498901,912.969849 1283.500000,912.968872 
z"/>
<path fill="#C3C3C3" opacity="1.000000" stroke="none" 
	d="
M1026.000000,761.061584 
	C1065.484497,761.061890 1104.469116,761.053162 1143.453613,761.073669 
	C1148.298828,761.076233 1152.772827,761.991943 1155.304688,766.832886 
	C1157.692749,771.398743 1157.543457,775.865784 1154.405273,779.972046 
	C1151.280273,784.061035 1146.761719,784.876160 1141.904907,784.873291 
	C1093.090942,784.844788 1044.276978,784.856079 995.462952,784.855225 
	C991.797791,784.855164 988.123962,785.006104 984.469299,784.807861 
	C977.795044,784.445740 972.656311,780.185608 972.003967,774.730469 
	C971.051208,766.764954 975.921021,761.126404 984.016602,761.081238 
	C997.843994,761.004150 1011.672180,761.060974 1026.000000,761.061584 
z"/>
<path fill="#C3C3C3" opacity="1.000000" stroke="none" 
	d="
M1195.680176,764.708496 
	C1198.948364,763.312988 1201.940186,761.223816 1204.943726,761.207031 
	C1244.084595,760.988525 1283.227051,761.051697 1322.369141,761.074158 
	C1330.928101,761.079041 1335.958984,765.514526 1335.987915,772.924255 
	C1336.014648,779.746887 1330.645996,784.799194 1322.678101,784.817322 
	C1283.869385,784.905884 1245.060181,784.900696 1206.251465,784.803284 
	C1200.928711,784.789917 1195.919312,783.475464 1193.460938,777.871887 
	C1191.402588,773.179932 1191.862793,768.838196 1195.680176,764.708496 
z"/>
<path fill="#E4E4E4" opacity="1.000000" stroke="none" 
	d="
M1346.017456,849.014771 
	C1342.688110,849.014404 1339.854370,849.055908 1337.022095,849.004883 
	C1330.946655,848.895508 1326.347778,844.711975 1325.996582,839.031494 
	C1325.557129,831.924316 1329.072754,826.452026 1335.565186,826.228821 
	C1349.379883,825.753784 1363.228027,825.804321 1377.048828,826.165405 
	C1383.172363,826.325378 1387.455078,832.206787 1386.991577,838.308838 
	C1386.510742,844.637756 1381.913330,848.973267 1375.511353,849.002258 
	C1365.845581,849.046021 1356.179565,849.014404 1346.017456,849.014771 
z"/>
<path fill="#F7C14D" opacity="1.000000" stroke="none" 
	d="
M965.416748,545.276123 
	C960.111572,550.867737 955.372253,552.009583 949.103760,549.474426 
	C944.635803,547.667480 941.094116,541.893311 941.264526,536.694031 
	C941.438232,531.396545 944.712891,526.915466 949.839050,524.960999 
	C954.916077,523.025269 960.804932,524.322632 964.422119,528.340942 
	C969.097961,533.535400 968.548767,539.180908 965.416748,545.276123 
z"/>
<path fill="#FA835C" opacity="1.000000" stroke="none" 
	d="
M989.907410,525.649292 
	C998.355347,522.492065 1006.375244,525.756226 1008.657532,532.956299 
	C1011.128784,540.752441 1006.772583,548.466919 998.865173,550.297913 
	C993.045227,551.645508 986.646606,548.357849 984.091858,542.707458 
	C981.299377,536.531311 983.243408,530.548340 989.907410,525.649292 
z"/>
<path fill="#D3D3D3" opacity="1.000000" stroke="none" 
	d="
M1049.908447,532.405029 
	C1051.623291,539.483704 1049.969482,544.744934 1045.114014,548.272156 
	C1041.465454,550.922729 1034.461060,550.780640 1029.951782,547.964722 
	C1024.234863,544.394714 1022.878723,535.929871 1027.051147,529.859253 
	C1031.256958,523.740112 1039.595703,522.100342 1044.947021,526.538330 
	C1046.810669,528.083862 1048.218994,530.178284 1049.908447,532.405029 
z"/>
<path fill="#909090" opacity="1.000000" stroke="none" 
	d="
M1005.706909,1054.815308 
	C1010.930054,1039.760864 1020.894531,1030.717285 1036.501587,1028.882935 
	C1048.642334,1027.455933 1060.759277,1027.177490 1071.674561,1034.356689 
	C1079.705933,1039.639160 1084.830811,1046.950317 1087.035400,1056.218872 
	C1087.359863,1057.582764 1086.620483,1059.801147 1085.581055,1060.799316 
	C1065.329590,1080.248901 1028.037354,1080.749390 1006.959045,1061.733643 
	C1005.621155,1060.526611 1005.997559,1057.419189 1005.706909,1054.815308 
z"/>
<path fill="#909090" opacity="1.000000" stroke="none" 
	d="
M1064.636963,1011.404541 
	C1057.668579,1023.702576 1039.624390,1025.974121 1030.030029,1014.456665 
	C1024.376465,1007.669739 1023.459534,997.456055 1028.195068,989.808838 
	C1033.107910,981.875366 1042.995605,978.057800 1052.063599,980.592957 
	C1060.934326,983.072876 1067.201416,990.868591 1067.000488,1000.006958 
	C1066.919067,1003.713074 1065.596680,1007.391968 1064.636963,1011.404541 
z"/>
<path fill="#FFFFFF" opacity="1.000000" stroke="none" 
	d="
M1117.000000,1323.019531 
	C1074.683838,1323.015869 1032.866333,1322.836670 991.052246,1323.127319 
	C980.047913,1323.203735 971.091675,1314.578125 971.057678,1303.410400 
	C970.948242,1267.425537 970.937134,1231.439575 971.081848,1195.454956 
	C971.122742,1185.290161 979.976135,1177.010986 990.206238,1177.009888 
	C1110.823486,1176.996704 1231.440918,1177.074829 1352.057739,1176.879395 
	C1363.333374,1176.861084 1372.346558,1187.185547 1372.200806,1197.005005 
	C1371.676758,1232.316040 1371.998901,1267.639648 1371.993164,1302.958496 
	C1371.990967,1315.795532 1364.794067,1323.007812 1351.904419,1323.010010 
	C1273.769653,1323.023438 1195.634766,1323.018311 1117.000000,1323.019531 
z"/>
<path fill="#FFFFFF" opacity="1.000000" stroke="none" 
	d="
M1284.000000,912.968872 
	C1307.498901,912.969849 1330.513672,913.474243 1353.489380,912.743652 
	C1363.814819,912.415283 1373.115967,922.830750 1373.074951,932.948059 
	C1372.876587,981.778198 1372.985840,1030.609497 1372.985840,1079.440430 
	C1372.985962,1084.940186 1372.765259,1090.450684 1373.031494,1095.937500 
	C1373.573486,1107.106445 1362.872437,1116.244507 1352.849365,1116.174072 
	C1301.521118,1115.813232 1250.188232,1115.863281 1198.858765,1116.132324 
	C1188.569214,1116.186279 1178.691528,1108.436279 1178.784668,1096.294189 
	C1179.204102,1041.633423 1179.216553,986.965393 1178.740356,932.305603 
	C1178.653564,922.350708 1187.834229,912.431152 1198.510620,912.713684 
	C1226.822876,913.463013 1255.167969,912.968506 1284.000000,912.968872 
z"/>
</svg>